<svg xmlns="http://www.w3.org/2000/svg" width="1200" height="800" viewBox="-134.94495 -112.438 1169.5229 674.628"><path d="M428.974 441.724l-4.282-8.036 2.837-2.214c10.604-8.277 21.012-19.343 28.099-29.874 13.846-20.573 18.687-34.79 21.227-62.34.96-10.422 1.55-309.5.61-309.5-1.198 0-41.043-9.159-41.753-9.597-.463-.286-.842-3.194-.842-6.462v-5.94h136v11.726l-30.5 9.046-.582 143.36c-.563 138.79-.647 143.71-2.625 154.36-3.826 20.59-8.29 33.958-16.803 50.302-10.362 19.895-24.857 36.662-42.99 49.73-6.877 4.955-41.35 23.467-43.702 23.467-.227 0-2.339-3.616-4.694-8.036zm-355.6-50.029c-22.948-2.312-40.854-5.948-59.701-12.12l-9.7-3.178-.517-5.068c-.72-7.06-3.85-89.634-3.415-90.07.195-.194 4.625-1.073 9.844-1.951 5.219-.879 10.657-1.832 12.085-2.118 2.587-.519 2.602-.482 4.347 10.275 2.558 15.779 7.412 36.845 10.193 44.245 3.255 8.661 8.639 15.52 17.5 22.296 13.517 10.335 28.054 15.755 42.26 15.755 17.026 0 30.096-5.412 42.158-17.457 14.03-14.012 20.052-30.646 19.199-53.043-.742-19.477-6.024-30.766-21.753-46.498-10.657-10.66-17.935-16.061-42.5-31.55-50.617-31.912-64.248-43.114-75.883-62.36C-.64 128.863-1.703 80.58 15.03 47.313 28.44 20.649 49.985 4.45 76.96.747 89.759-1.01 114.67.393 140.375 4.32c11.296 1.725 32.949 6.837 38.69 9.135l3.81 1.524v92.783h-24.91l-.55-3.25c-.302-1.787-1.679-11.893-3.059-22.456-1.38-10.563-3.355-21.925-4.39-25.248-4.799-15.42-16.514-25.676-36.59-32.033-9.914-3.139-28.167-3.933-35.728-1.555C65.875 26.923 57.1 36.696 52.242 51.515c-2.64 8.054-2.867 9.935-2.867 23.747 0 13.051.298 15.864 2.297 21.647 4.665 13.5 14.565 26.384 29.45 38.333 7.684 6.168 41.28 29.1 60.753 41.467 24.779 15.738 45.005 34.3 54.38 49.905 5.624 9.363 11.03 24.32 12.702 35.148 1.868 12.095.666 36.456-2.373 48.074-5.38 20.567-14.032 36.171-28.151 50.772-14.162 14.646-28.79 23.45-47.858 28.802-8.192 2.3-11.335 2.616-28.7 2.888-10.725.168-23.55-.102-28.5-.601zm146.5-12.238v-6.303l7.25-2.32c3.988-1.277 10.962-3.658 15.5-5.292l8.25-2.97V28.881l-8.25-2.487a11725.68 11725.68 0 00-15.5-4.658l-7.25-2.171V7.76h134.1l-.298 6.236-.297 6.237-19 4.248c-10.45 2.336-20.012 4.488-21.25 4.782l-2.25.535v331.96h30.55c24.72 0 31.084-.277 33.352-1.45 4.017-2.077 9.02-8.125 11.662-14.098 2.208-4.994 14.642-42.901 19.914-60.713 2.358-7.968 2.793-8.718 4.807-8.295 1.218.256 6.94 1.208 12.715 2.114 5.775.907 10.792 1.94 11.15 2.295.356.355-.406 8.52-1.695 18.146-1.29 9.625-4.188 31.9-6.442 49.5-2.254 17.6-4.313 33.012-4.575 34.25l-.476 2.25h-201.96zm388.59-38.318c-.407-1.061.74-3.1 3.324-5.902 2.17-2.354 4.448-6.012 5.062-8.128.75-2.58 1.02-14.382.82-35.816l-.298-31.97-4.25-.84c-2.645-.523-4.25-1.384-4.25-2.28 0-1.19 2.541-1.442 14.5-1.442 12.021 0 14.5.249 14.5 1.455 0 .87-1.405 1.718-3.5 2.11l-3.5.658-.006 30.139c-.003 17.427-.436 31.69-1.027 33.816-1.84 6.624-6.972 12.909-13.467 16.49-6.946 3.83-7.083 3.86-7.908 1.71zm44.402-17.313c-15.145-4.607-22.234-20.163-15.42-33.837 7.468-14.985 28.985-17.608 40.149-4.893 6.614 7.533 7.893 17.618 3.362 26.5-4.819 9.445-18.156 15.252-28.09 12.23zm11.734-5.254c7.6-6.308 8.058-27.225.757-34.527-7.789-7.789-16.283-.79-17.253 14.216-.588 9.081 1.058 14.989 5.379 19.31 2.914 2.914 3.903 3.336 6.565 2.804 1.724-.345 3.772-1.156 4.552-1.804zm29.593 4.575c-5.422-2.673-6.321-6.131-6.321-24.313V282.71l-3.02-.604c-7.315-1.463-3.52-3.73 7.77-4.643l7.25-.586v16.877c0 9.282.441 18.037.98 19.454.539 1.417 2.088 3.082 3.442 3.699 2.04.93 3.288.712 7.27-1.262l4.808-2.384.276-15.215.276-15.215-3.208-.832c-1.764-.457-3.378-1.341-3.586-1.965-.367-1.101 1.099-1.401 13.492-2.765l5.25-.578v42.82l3 .6c1.65.33 3 1.221 3 1.981 0 1.019-2.164 1.53-8.224 1.946-4.523.31-8.573.348-9 .084-.427-.264-.776-2.107-.776-4.095v-3.615l-2.25 2.112c-3.11 2.92-10.642 6.192-14.25 6.191-1.65 0-4.43-.706-6.179-1.568zm141.68-.138c-7.334-3.664-8.76-13.334-2.84-19.255 3.49-3.488 8.3-4.98 16.09-4.987l5.75-.006v-6c0-7.816-1.939-10-8.872-10h-4.87l-.664 5c-.62 4.674-.849 5-3.512 5-3.104 0-4.044-1.784-4.069-7.725-.017-4.022 2.951-5.762 12.671-7.427 8.953-1.533 13.81-.553 17.994 3.63l3.321 3.322v34.95l3 .6c1.76.351 3 1.23 3 2.125 0 1.15-1.164 1.527-4.75 1.536-2.612.006-6.376.28-8.364.608-3.24.536-3.679.341-4.237-1.881l-.622-2.48-4.683 2.37c-5.568 2.82-9.593 2.993-14.344.62zm16.05-5.774c2.806-1.451 2.95-1.842 2.95-8 0-6.452-.01-6.474-2.85-6.474-4.164 0-9.047 1.939-10.17 4.04-1.363 2.545-1.223 7.27.27 9.154 2.385 3.006 5.64 3.431 9.8 1.28zm-114.05 5c0-.894 1.24-1.772 3-2.124l3-.6v-37.5l-3-.6c-1.76-.352-3-1.23-3-2.125 0-1.151 1.165-1.528 4.75-1.536 2.613-.006 6.438-.29 8.5-.631l3.75-.62v10.49l4.801-5.115c3.016-3.212 5.637-5.113 7.05-5.113 2.039 0 8.15 2.552 8.15 3.403 0 .413-3.112 7.987-3.422 8.33-.116.128-1.674-.187-3.463-.7-3.7-1.06-6.575-.213-9.866 2.91-2.107 2-2.25 2.955-2.25 15.077v12.942l2.5.519 5 1.038c1.375.285 2.5 1.185 2.5 2 0 1.237-2.302 1.48-14 1.48-11.88 0-14-.23-14-1.524zm38 .17c0-.745 1.463-1.774 3.25-2.286l3.25-.931.543-37.196-3.521-.661c-5.282-.99-4.676-3.57.838-3.57 2.399 0 6.449-.286 9-.636l4.64-.636v3.636c0 2 .255 3.636.567 3.636.312 0 2.007-1.099 3.768-2.442 1.76-1.343 5.34-3.014 7.952-3.712 5.93-1.586 11.951.196 15.122 4.475 1.905 2.57 2.112 4.348 2.325 19.997l.235 17.176 3.015.782c1.659.43 3.016 1.443 3.016 2.252 0 1.214-2.104 1.472-12 1.472-9.628 0-12-.277-12-1.402 0-.772 1.35-1.873 3-2.448l3-1.046v-13.987c0-13.561-.848-18.764-3.313-20.331-2.058-1.31-5.63-.856-9.727 1.234l-3.96 2.02v31.71l3 .6c1.76.352 3 1.23 3 2.125 0 1.285-1.965 1.525-12.5 1.525-9.852 0-12.5-.287-12.5-1.356zm98.696.718c-1.426-1.426-.599-2.29 2.804-2.928l3.5-.657v-63.555l-3.5-.656c-3.28-.616-4.463-1.864-2.75-2.903.413-.25 4.688-.78 9.5-1.177l8.75-.723v69.014l3.564.669c2.106.395 3.403 1.157 3.169 1.861-.437 1.314-23.793 2.299-25.037 1.055zm-22.951-63.005c-.278-.471.4-3.22 1.508-6.107 1.927-5.022 2.176-5.25 5.707-5.25 4.824 0 7.207-2.62 10.173-11.183l2.314-6.684-4.871-11.817a4663.852 4663.852 0 01-8.32-20.317c-1.897-4.675-4.306-9.117-5.353-9.872-1.046-.754-1.903-1.767-1.903-2.25 0-.483 5.213-.878 11.583-.878 8.587 0 11.48.312 11.182 1.204-.22.663-1.792 1.565-3.492 2.005l-3.09.801 4.748 11.245c2.612 6.185 4.968 11.911 5.235 12.725.465 1.414 9.834-20.999 9.834-23.527 0-.67-.9-1.455-2-1.742-1.1-.288-2-1.016-2-1.617 0-.694 2.739-1.094 7.5-1.094 4.125 0 7.5.309 7.5.686 0 .377-.864 1.614-1.92 2.75-1.055 1.135-7.168 15.339-13.583 31.564-6.416 16.225-12.775 30.963-14.133 32.75-1.358 1.789-3.747 3.914-5.311 4.722-3.571 1.847-10.636 3.025-11.308 1.886zm-160.17-27.358c-8.747-.552-10.769-2.122-5.13-3.983l3.551-1.172v-32.422c0-30.614-.1-32.422-1.809-32.422-2.313 0-5.794-2.509-4.55-3.278.52-.321 4.863-.902 9.652-1.29l8.707-.707v16.138c0 8.876.243 16.138.54 16.138.298 0 1.826-.95 3.397-2.11 1.57-1.162 4.899-2.342 7.397-2.624 14.713-1.658 22.469 7.314 21.455 24.82-.541 9.34-3.77 15.548-10.572 20.33-3.493 2.453-5.185 2.962-9.64 2.897-2.972-.044-6.862-.807-8.644-1.697-3.99-1.99-4.933-2.024-4.933-.175 0 2.03-.543 2.12-9.421 1.559zm25.67-8.75c3.718-3.897 4.862-7.629 4.862-15.86 0-7.452-1.591-12.886-4.473-15.276-2.273-1.885-8.514-1.746-12.424.276l-3.214 1.662v14.822c0 14.382.067 14.854 2.25 15.907 1.237.597 4.078 1.116 6.313 1.153 3.181.053 4.632-.529 6.686-2.682zm60.844 8.476c-6.847-2.464-9.931-11.102-6.31-17.675 2.58-4.683 8.097-7.332 16.663-8l7.053-.55.333-3.5c.183-1.925-.168-5.17-.779-7.211-.89-2.974-1.776-3.895-4.458-4.635-6.893-1.904-9-.434-9.816 6.846-.23 2.049-.821 2.5-3.28 2.5-2.998 0-3-.004-3-5.965v-5.964l5.5-1.725c11.91-3.734 23.618-1.611 26.025 4.72.536 1.41.975 10.15.975 19.421v16.857l3.25 1.065c1.913.627 4.484.733 6.25.257l3-.809.271-19.095.272-19.095-3.022-.664c-7.353-1.615-.55-4.465 10.73-4.496 3.248-.009 3.25-.006 3.302 5.242l.052 5.25 1.688-2.5c3.702-5.485 6.984-8 10.44-8 1.862 0 4.254.635 5.316 1.411 1.842 1.347 1.856 1.608.306 5.75-1.023 2.736-2.127 4.191-2.989 3.94-4.48-1.31-6.633-1.068-9.865 1.113l-3.5 2.362-.277 14.099-.277 14.099 4.695.863c2.582.475 4.857 1.354 5.057 1.954.25.752-6.28 1.283-21.05 1.71-11.777.341-22.017.75-22.756.91-.746.16-1.498-.713-1.688-1.961-.415-2.72-.298-2.712-4.397-.323-4.471 2.604-9.603 3.278-13.714 1.799zm15.684-7.282c1.906-1.335 2.223-2.476 2.223-8v-6.444h-3.033c-3.425 0-9.375 2.232-10.409 3.904-1.486 2.406-.827 9.427 1.012 10.771 2.444 1.788 7.487 1.673 10.207-.232zm-185.54 5.352c.22-.662 1.84-1.577 3.598-2.032l3.196-.828-.264-30.681-.265-30.681-3.25-.932c-1.787-.513-3.25-1.542-3.25-2.287 0-1.074 2.807-1.355 13.5-1.355 11.146 0 13.5.253 13.5 1.454 0 .871-1.405 1.718-3.5 2.112l-3.5.656v61.277l17.444-.33 2.861-8.585c2.424-7.272 3.193-8.583 5.029-8.57 4.306.03 4.51.865 2.877 11.735l-1.541 10.25h-23.418c-17.813 0-23.322-.288-23.017-1.204zm49 0c.22-.662 1.843-1.577 3.605-2.034l3.204-.83-.544-37.358-3.25-.932c-5.232-1.499-3.938-3.285 2.897-3.999 3.38-.353 7.647-.643 9.48-.643h3.334l.54 43.411 2.425.573c1.334.314 2.61 1.122 2.834 1.794.306.92-2.723 1.222-12.26 1.222-9.43 0-12.563-.307-12.264-1.204zm77.006-.018c.224-.672 1.5-1.48 2.833-1.794l2.426-.572.272-19.122.27-19.122-3.02-.664c-7.354-1.615-.552-4.466 10.729-4.496 3.248-.009 3.25-.006 3.302 5.241l.052 5.25 1.688-2.5c3.736-5.535 6.977-8 10.52-8 1.906 0 4.376.788 5.488 1.75 1.994 1.726 1.996 1.809.166 5.967-1.809 4.11-1.936 4.19-4.942 3.142-2.295-.8-3.858-.756-6.095.17-5.329 2.208-5.93 4.091-5.93 18.586v13.169l4.668.858c2.567.472 4.855 1.42 5.083 2.108.32.96-2.862 1.25-13.75 1.25-10.719 0-14.068-.298-13.76-1.222zm-69.241-56.778c-2.802-2.803-2.683-8.408.223-10.443 4.899-3.432 11.11-.388 11.11 5.443 0 6.062-7.127 9.206-11.332 5zm-50.487-33.35l-4.987-1.158-.8-5.496c-.44-3.023-.67-7.296-.513-9.496.252-3.514.614-4.038 2.982-4.31 2.424-.28 2.805.122 3.784 4 1.744 6.903 2.779 8.692 6.25 10.81 5.03 3.065 11.94 2.714 15.884-.809 2.522-2.253 3.239-3.796 3.623-7.795.645-6.711-1.746-9.433-15.161-17.258-12.824-7.481-15.79-10.952-16.385-19.18-.334-4.61.05-6.822 1.814-10.467 4.455-9.203 13.893-12.206 29.882-9.509l7.113 1.2v18.952l-2.734-.317c-2.455-.284-2.839-.874-3.766-5.787-1.298-6.882-5.224-10.047-12.398-9.997-6.487.045-10.102 3.443-10.102 9.498 0 5.766 2.538 8.133 20.306 18.936 10.06 6.116 13.208 10.564 13.161 18.597-.046 7.973-4.01 14.31-11.347 18.143-4.65 2.429-6.412 2.782-13.485 2.698-4.475-.053-10.38-.617-13.123-1.254zm54.84-.278c-6.224-2.206-11.02-7.417-12.956-14.079-4.988-17.158 4.86-32.299 21.484-33.035 3.64-.161 9.296.278 12.568.975l5.949 1.268-.282 5.98c-.334 7.092-.537 7.52-3.563 7.52-1.901 0-2.459-.69-3.03-3.75-.917-4.905-1.946-6.018-6.76-7.314-9.271-2.497-14.157 3.88-14.222 18.564-.046 10.246 1.549 14.46 6.427 16.983 3.998 2.067 11.657 1.87 16.723-.43 3.757-1.705 4.323-1.743 5.47-.36 1.08 1.3.814 1.92-1.69 3.94-6.172 4.983-17.88 6.659-26.118 3.739zm94.733-.089c-8.542-3.017-16.086-13.702-16.086-22.783 0-4.38 3.187-12.643 6.198-16.073 5.062-5.765 10.107-7.877 18.88-7.904 6.71-.02 8.139.323 12.47 3 6.19 3.828 10.144 9.447 11.618 16.51.996 4.769.896 6.36-.72 11.496-4.28 13.606-18.644 20.599-32.36 15.754zm12.829-3.739c4.21-2.177 6.465-7.76 6.899-17.088.66-14.179-3.074-21.91-10.581-21.91-4.88 0-6.97 1.628-9.545 7.437-1.457 3.286-1.98 6.625-1.96 12.5.032 9.792 2.224 15.906 6.674 18.62 3.73 2.275 4.854 2.334 8.513.441zm39.307 3.986c-19.964-6.234-22.747-33.496-4.514-44.213 4.12-2.421 5.844-2.813 12.292-2.793 8.689.027 13.756 2.157 18.802 7.904 3.012 3.43 6.198 11.693 6.198 16.073 0 5.36-3.24 12.793-7.383 16.936-6.85 6.85-15.968 9.037-25.394 6.093zm11.693-3.986c4.21-2.177 6.465-7.76 6.899-17.088.669-14.364-3.056-21.91-10.814-21.91-7.862 0-11.518 7.613-10.81 22.51.443 9.304 2.68 14.612 7.043 16.715 3.113 1.501 4.415 1.462 7.682-.227zm-131.38 3.506c-.662-1.07 2.52-3.05 4.903-3.05 1.39 0 1.566-3.698 1.566-32.793V71.174l-3.095-.957c-1.702-.526-3.062-1.406-3.023-1.956.074-1.042 15.679-2.8 17.868-2.012.93.334 1.25 4.561 1.25 16.48 0 8.818.268 16.032.596 16.032.327 0 1.79-.838 3.25-1.862 6.475-4.54 16.14-5.239 20.37-1.473 4.05 3.607 4.784 7.389 4.784 24.678v16.407l3 .6c1.76.352 3 1.23 3 2.125 0 1.282-1.913 1.525-12 1.525-9.628 0-12-.277-12-1.402 0-.772 1.39-1.887 3.088-2.48l3.088-1.076-.338-15.918c-.297-13.962-.572-16.177-2.243-18.02-2.349-2.593-4.85-2.625-10.345-.13l-4.25 1.929v32.939l3 .658c1.65.363 3 1.299 3 2.08 0 1.151-2.358 1.42-12.441 1.42-6.843 0-12.705-.427-13.028-.95zm149 0c-.664-1.074 2.522-3.05 4.917-3.05 1.412 0 1.551-3.457 1.316-32.687l-.264-32.687-3.25-.842c-3.277-.848-4.311-2.52-2-3.232.687-.211 4.957-.633 9.487-.936l8.237-.552.263 35.154.263 35.154 3.25.842c1.813.47 3.25 1.493 3.25 2.313 0 1.217-2.157 1.472-12.441 1.472-6.843 0-12.705-.428-13.028-.95z" fill="#9da7cf"/><path d="M429.234 441.314l-3.835-7.45 4.487-3.794c14.39-12.166 22.188-21.283 31.579-36.918 9.913-16.505 14.16-32.01 16.379-59.782.643-8.048 1.03-67.525 1.03-158.23V29.8l-2.608-.655c-1.434-.36-10.997-2.516-21.25-4.79l-18.642-4.136-.298-6.229-.297-6.228h135.2l-.3 5.744-.3 5.744-31 9.158-.56 145.43c-.614 159.49-.208 148.98-6.634 171.93-10.44 37.292-32.217 66.656-63.806 86.038-6.895 4.23-32.74 16.962-34.435 16.962-.478 0-2.595-3.353-4.704-7.45zm-332.47-48.99c-.242-.242-5.155-.525-10.917-.629-20.87-.376-49.168-5.094-69.324-11.558-6.134-1.967-11.459-3.868-11.833-4.224-.624-.595-1.603-19.767-3.479-68.148-.394-10.175-.745-20.281-.779-22.458l-.062-3.959 10.927-1.83c6.01-1.008 11.437-1.635 12.061-1.396.624.24 1.7 4.194 2.392 8.79 1.992 13.233 8.096 39.876 10.39 45.353 5.309 12.666 16.13 23.15 32.31 31.296 8.908 4.486 17.543 6.483 27.92 6.458 31.713-.077 55.1-21.085 60.975-54.77 1.933-11.084 1.92-16.651-.058-26.23-2.102-10.175-6.298-19.153-13.107-28.043-10.084-13.165-15.982-17.56-75.035-55.901-21.72-14.103-33.26-23.311-41.969-33.492-17.23-20.145-24.044-42.354-22.95-74.817.724-21.524 3.42-33.424 11.214-49.5C25.623 26.264 42.67 11 63.607 4.138c8.658-2.838 9.032-2.87 31.761-2.792 29.66.103 54.192 3.55 78.76 11.062l8.76 2.68-.52 92.178-11.416.285c-6.278.156-11.762-.069-12.186-.5-.423-.432-1.933-9.785-3.354-20.784-2.892-22.38-4.48-29.707-8.025-37-6.577-13.534-25.377-24.566-47.019-27.591-26.186-3.66-43.788 8.51-50.123 34.656-2.102 8.675-2.39 27.836-.531 35.435 2.716 11.114 8.829 21.584 18.516 31.717 11.426 11.952 19.587 18.04 59.826 44.638 34.412 22.745 46.722 32.147 55.929 42.717 14.157 16.252 21.028 30.573 24.429 50.915 1.871 11.195 1.623 28.69-.576 40.514-9.104 48.95-46.728 84.93-93.578 89.486-10.861 1.056-16.822 1.25-17.5.573zm123.31-13.242l.3-5.682 30.5-10.086-.015-167.52-.016-167.52-30.469-9.027-.3-5.737-.3-5.736h133.1v5.98c0 5.477-.201 6.032-2.396 6.583-1.318.33-10.656 2.483-20.75 4.783l-18.353 4.182-.253 166.74-.253 166.74h29.687c28.26 0 29.9-.103 34.093-2.133 4.66-2.255 9.294-7.716 12.194-14.367 2.51-5.757 8.223-22.876 15.678-46.984 3.57-11.54 6.655-21.15 6.859-21.354.853-.854 24.742 3.318 25.154 4.393.247.644-2.5 23.71-6.106 51.259-3.604 27.549-6.554 50.335-6.554 50.638 0 .302-45.472.55-101.05.55h-101.05zm388.29-38.327c-.343-.555.72-2.14 2.363-3.523 1.643-1.382 4.035-4.64 5.315-7.24 2.295-4.66 2.328-5.198 2.328-37.715v-32.99l-4.794-.877c-2.83-.518-4.64-1.342-4.417-2.011.49-1.47 27.676-1.6 27.787-.134.041.55-1.309 1.403-3 1.895l-3.075.895v28.806c0 32.025-.609 36.913-5.376 43.198-5.407 7.129-15.268 12.71-17.13 9.697zm247.92-16.907c-.227-.229-.414-1.241-.414-2.25 0-2.246.251-2.255-4.5.167-4.427 2.257-12.006 2.638-16.028.805-5.44-2.479-7.345-12.154-3.383-17.19 3.136-3.987 7.193-5.644 15.712-6.416l7.7-.699-.123-5.844c-.157-7.524-2.172-9.803-8.752-9.902-2.553-.039-4.901.189-5.218.505-.317.317-.822 2.413-1.124 4.659-.496 3.7-.815 4.082-3.415 4.082-2.434 0-2.887-.416-2.988-2.75a696.143 696.143 0 00-.25-5.25c-.114-2.177.578-2.735 5.37-4.33 6.931-2.306 17.471-2.62 21.5-.641 5.491 2.698 6.496 6.509 6.498 24.642l.002 16.17 3.053.671c5.43 1.193 2.652 2.965-5.468 3.489-4.267.275-7.944.312-8.172.083zm-3.003-7.19c2.46-1.936 2.655-2.61 2.384-8.25l-.294-6.143-4.5.314c-6.637.462-9.433 2.872-9.801 8.444-.251 3.8.076 4.822 1.972 6.15 3.128 2.19 7.049 1.994 10.239-.516zm-203.91 5.718c-15.311-6.688-19.168-27.289-7.179-38.34 5.233-4.823 10.256-6.686 17.881-6.63 24.19.173 32.217 32.998 10.693 43.724-5.999 2.99-16.063 3.576-21.395 1.246zm15.353-4.14c4.315-3.631 6.507-10.97 5.931-19.85-.71-10.957-4.95-17.552-11.312-17.6-7.112-.052-11.419 7.09-11.445 18.979-.02 9.401 1.237 14 4.9 17.92 3.624 3.881 7.74 4.07 11.925.55zm28.292 3.966c-4.267-3.076-5.145-7.14-5.145-23.807v-15.434l-3-1.046c-1.65-.575-3-1.474-3-1.997 0-.924 15.746-3.107 17.25-2.391.413.196.75 8.43.75 18.298 0 16.926.12 18.06 2.113 20.054 2.574 2.574 7.349 2.119 11.923-1.138l3.016-2.147-.276-15.12c-.275-15.083-.281-15.121-2.701-15.691-4.994-1.177-3.273-2.837 3.62-3.493 3.744-.357 7.617-.733 8.609-.836 1.68-.175 1.816 1.24 2 20.812l.197 21 3.263.96c5.667 1.669 3.03 3.04-5.847 3.04h-8.416l-.309-3.188-.309-3.188-4.457 3.142c-5.548 3.91-15.34 5.013-19.28 2.171zm58.106.784c-13.237-.279-16.127-1.106-10-2.864l3.25-.932v-36.85l-3.25-.932c-6.21-1.78-3.037-3.344 7.75-3.82l5.5-.242 1 10.806 2.745-4.165c3.383-5.133 7.412-7.408 11.285-6.372 4.131 1.105 4.953 3.058 3.126 7.431-1.448 3.465-1.727 3.644-4.032 2.594-3.01-1.371-6.4-.625-9.99 2.198l-2.69 2.116.278 13.64.278 13.64 3.8.617c3.77.611 6.646 2.354 5.037 3.052-.46.2-6.8.237-14.087.083zm25.094-.473c-.445-.72 3.776-2.748 5.72-2.748.548 0 .935-7.882.935-19s-.387-19-.934-19c-.515 0-2.163-.467-3.663-1.037-4.336-1.649-1.643-2.811 7.097-3.065l8-.231.314 3.166c.172 1.742.52 3.167.771 3.167.252 0 2.136-1.091 4.187-2.425 8.853-5.76 19.768-5.17 22.882 1.235.452.93 1.052 9.55 1.334 19.155l.512 17.465 3.282.94c1.805.516 3.144 1.353 2.975 1.86-.169.506-.633.887-1.032.846-.399-.041-5.675-.075-11.725-.075-10.609 0-14.23-1.132-8-2.5l3-.66V303.91c0-12.59-.308-16.138-1.557-17.921-2.05-2.929-7.385-2.945-12.557-.039l-3.886 2.185v30.605l3.654 1.526c2.01.84 3.404 1.776 3.099 2.081-.859.859-23.884 1.017-24.408.168zm110.41.505c-11.402-.307-14.89-1.404-8.75-2.753l3-.659v-63.552l-3.076-.894c-1.691-.492-3.05-1.345-3.018-1.895.055-.97 15.839-2.596 17.344-1.786.412.222.75 15.641.75 34.265v33.862l3 .66c1.65.362 3 1.297 3 2.079 0 .781-.113 1.323-.25 1.205-.138-.118-5.538-.357-12-.532zm-33.292-68.503c1.876-4.202 2.774-5.2 4.497-5.002 4.771.55 7.743-2.34 10.945-10.645l3.057-7.927-8.511-20.338c-4.681-11.186-9.397-21.085-10.478-21.998-1.082-.913-1.968-1.925-1.968-2.25 0-.324 4.924-.59 10.941-.59 10.602 0 15.058 1.244 9.35 2.61-4.278 1.023-4.282 1.039-1.846 7.151 6.52 16.363 7.888 19.306 8.62 18.556.655-.67 9.935-23.842 9.935-24.807 0-.16-1.125-.575-2.5-.92-4.84-1.215-2.451-2.59 4.5-2.59 7.012 0 8.614.963 5.64 3.39-.748.61-6.84 14.835-13.539 31.61-6.698 16.775-12.992 31.477-13.987 32.671-3.102 3.726-8.357 6.321-12.808 6.325l-4.193.004 2.344-5.25zm-167.21-22.456c-3.198-.616-2.785-2.237.75-2.944l3-.6v-65.59l-3-.66c-5.285-1.16-3.698-3.5 2.375-3.5 2.956 0 6.78-.281 8.5-.625l3.125-.625v16.625c0 15.335.565 18.756 2.564 15.521 1.229-1.988 8.85-4.851 12.974-4.874 6.166-.033 12.498 3.644 15.462 8.978 2.148 3.867 2.5 5.767 2.5 13.5 0 8.074-.3 9.542-2.918 14.267-5.684 10.26-16.535 14.1-26.082 9.233-2.158-1.1-4.053-2-4.212-2-.158 0-.288.9-.288 2 0 1.801-.622 1.987-6.25 1.864-3.438-.075-7.263-.331-8.5-.57zm28.79-5.815c4.812-2.488 7.347-8.64 7.407-17.979.058-8.88-1.899-13.774-6.555-16.387-3.127-1.755-8.674-.858-12.291 1.986-2.578 2.028-2.602 2.174-2.602 15.851 0 14.906.156 15.373 5.686 17.033 4.12 1.237 5.103 1.178 8.354-.504zm61.202 5.196c-3.564-1.98-5.419-5.41-5.49-10.16-.13-8.617 5.334-13.036 17.425-14.09l7.823-.683v-5.648c0-3.45-.595-6.498-1.529-7.831-1.684-2.404-7.091-3.826-10.907-2.868-2.047.514-2.5 1.311-2.757 4.86-.26 3.607-.666 4.296-2.694 4.583-3.016.427-4.078-1.25-4.098-6.466-.013-3.585.348-4.27 2.735-5.198 8.99-3.495 18.433-4.13 23.772-1.596 5.617 2.665 6.479 5.973 6.479 24.876v16.65l3 1.047c1.65.575 3 1.395 3 1.823 0 1.1-5.32 2.027-11.625 2.027-4.709 0-5.375-.248-5.375-2 0-1.1-.13-2-.289-2-.159 0-2.054.9-4.211 2-4.437 2.262-11.813 2.588-15.26.675zm17.509-5.907c1.997-.982 2.25-1.853 2.25-7.77 0-3.666-.24-6.904-.532-7.196-.293-.293-2.655-.146-5.25.326-7.509 1.366-11.215 7.273-8.153 12.994 1.99 3.72 6.246 4.32 11.685 1.646zm-185.75 5.28c0-.545 1.462-1.37 3.25-1.833l3.25-.841.528-62.076-3.09-.9c-1.699-.493-3.055-1.348-3.014-1.898.096-1.27 24.977-1.358 25.325-.09.138.502-1.325 1.442-3.25 2.09l-3.5 1.179v60.822l18.101.57 2.906-9.092c2.795-8.747 3.002-9.068 5.447-8.454 1.398.351 2.701.798 2.897.993.195.195-.257 4.771-1.005 10.17l-1.36 9.813-23.243.268c-14.85.172-23.243-.089-23.243-.721zm49 .097c0-.47 1.462-1.275 3.25-1.787l3.25-.931.27-19.063.272-19.063-3.193-.916c-4.979-1.428-4.796-3.384.317-3.394 2.384-.005 6.696-.293 9.584-.64l5.25-.63v44.029l3 .6c1.65.33 3 1.061 3 1.625 0 .645-4.63 1.025-12.5 1.025-6.875 0-12.5-.385-12.5-.856zm77 0c0-.47 1.462-1.275 3.25-1.787l3.25-.931.542-38.258-3.01-.661c-2.718-.597-4.781-2.163-3.883-2.946.193-.168 4.063-.619 8.6-1.002l8.25-.697v5.069c0 2.788.45 5.068 1 5.068s1-.448 1-.997c0-.548 1.628-2.798 3.617-5 3.82-4.228 6.342-4.89 10.837-2.842 3.006 1.37 3.034 1.582.912 6.884-1.156 2.891-1.946 3.774-2.7 3.02-1.962-1.962-7.37-1.184-10.589 1.524l-3.076 2.59v13.891c0 15.306-.513 14.097 6.417 15.141 1.054.159 2.104.852 2.333 1.539.32.96-2.745 1.25-13.167 1.25-7.47 0-13.583-.385-13.583-.855zm80-.116c0-.535 1.462-1.35 3.25-1.813l3.25-.842.27-19.036.272-19.036-3.193-.915c-5.743-1.647-4.345-3.05 3.72-3.732 4.199-.355 8.039-.396 8.533-.09.494.304.898 2.878.898 5.718 0 5.131.01 5.148 1.65 2.69 5.698-8.531 10.745-10.902 15.32-7.197 2.147 1.738 2.158 1.865.51 5.982-1.435 3.588-1.951 4.061-3.516 3.224-3.121-1.67-6.679-1.092-9.888 1.608l-3.076 2.589v13.892c0 15.306-.513 14.097 6.417 15.14 1.054.16 2.104.852 2.333 1.54.32.959-2.745 1.25-13.167 1.25-8.122 0-13.583-.39-13.583-.972zm-146-55.806c-5.409-1.743-6.684-7.753-2.366-11.15 1.45-1.14 3.189-2.073 3.866-2.073 2.61 0 6.5 4.14 6.5 6.918 0 3.924-4.466 7.443-8 6.304zm-52.232-34.622c-3.153-.678-5.903-1.428-6.112-1.667-.208-.239-.665-4.32-1.014-9.068-.616-8.356-.564-8.654 1.61-9.237 1.237-.33 2.54-.608 2.898-.615.358-.008 1.205 2.348 1.882 5.236.678 2.887 1.661 6.08 2.186 7.094 1.487 2.877 9.378 5.954 13.355 5.208 6.772-1.27 12.164-8.712 10.706-14.778-.853-3.548-6.16-8.539-13.275-12.48-10.522-5.831-14.845-9.335-16.993-13.77-5.178-10.697.7-23.484 12.222-26.586 3.045-.82 6.642-.82 13.59 0 5.198.612 9.839 1.354 10.314 1.647.474.294.863 4.332.863 8.975 0 8.294-.043 8.441-2.453 8.441-1.983 0-2.653-.719-3.495-3.75-.572-2.063-1.044-4.544-1.047-5.515-.007-2.235-5.18-5.42-10.177-6.264-9.966-1.684-16.046 10.106-9.144 17.732.959 1.06 6.485 4.788 12.28 8.284 14.664 8.846 18.203 12.946 18.203 21.086 0 6.363-1.695 10.56-5.933 14.697-6.6 6.443-16.903 8.245-30.467 5.33zm56.95.355c-11.62-2.882-16.986-10.293-17.028-23.514-.019-5.817.453-7.928 2.685-12 5.282-9.637 13.937-13.217 27.765-11.483 4.393.55 8.408 1.262 8.923 1.58 1.049.648 1.232 6.76.307 10.211-.411 1.536-1.36 2.25-2.986 2.25-1.93 0-2.387-.523-2.399-2.75-.02-3.54-.777-4.608-4.685-6.61-4.877-2.499-8.993-2.1-12.282 1.19-3.519 3.518-5.005 8.692-5.012 17.452-.012 15.351 7.991 21.435 21.994 16.718 5.078-1.71 6.467-1.868 7.134-.812 2.679 4.241-15.42 10-24.416 7.768zm92.465-.858c-10.341-3.572-16.13-11.849-16.151-23.098-.038-19.21 20.123-29.868 37.154-19.64 9.706 5.83 13.777 19.54 8.948 30.14-2.56 5.623-9 11.085-15.256 12.944-6.59 1.957-8.134 1.921-14.695-.345zm13.104-4.109c4-3.146 6.226-10.228 6.129-19.489-.092-8.745-2.391-14.968-6.625-17.934-6.23-4.363-13.69.808-15.794 10.948-3.769 18.153 6.223 34.393 16.289 26.476zm37.896 4.11c-10.157-3.509-16.122-11.87-16.161-22.653-.043-11.639 7.323-21.068 18.294-23.42 15.823-3.394 29.719 7.57 29.662 23.403-.028 7.577-2.345 12.88-7.763 17.764-3.928 3.542-12.05 6.847-16.647 6.774-1.137-.018-4.461-.86-7.386-1.87zm13.104-4.11c3.892-3.062 6.222-10.248 6.157-18.989-.068-9.207-1.651-14.155-5.588-17.467-9.482-7.979-19.365 4.42-17.396 21.825 1.526 13.482 9.486 20.405 16.826 14.631zm-131.87 4.094c-1.108-1.105-.109-1.919 3.095-2.52l3.514-.659-.264-32.665-.263-32.665-3.25-.932c-1.788-.512-3.25-1.541-3.25-2.287 0-1.018 1.843-1.355 7.418-1.355 4.08 0 8.13-.273 9-.607 1.404-.539 1.582 1.312 1.582 16.5 0 15.656.56 19.246 2.509 16.093 1.067-1.727 7.79-4.717 11.99-5.332 5.677-.832 10.499 1.154 12.926 5.322 1.798 3.09 2.037 5.366 2.154 20.493l.13 17.017 3.178.911c1.747.502 3.013 1.403 2.813 2.004-.526 1.578-23.697 1.508-23.699-.07 0-.644 1.378-1.474 3.064-1.844l3.064-.673-.314-16.99c-.287-15.457-.49-17.116-2.256-18.405-2.709-1.978-6.201-1.77-11.243.671l-4.316 2.09v32.532l3.076.894c6.124 1.782 2.9 2.852-8.66 2.873-6.369.012-11.768-.166-11.998-.395zm148.58-.672c0-.617 1.462-1.541 3.25-2.054l3.25-.932V71.392l-3.25-.842c-6.71-1.739-3.32-3.275 9-4.076l5.75-.374v70.574l3.543.665c1.949.366 3.376 1.166 3.172 1.779-.518 1.556-24.716 1.613-24.716.058z" fill="#9c9da2"/><path d="M429.234 441.314l-3.835-7.45 4.487-3.794c14.39-12.166 22.188-21.283 31.579-36.918 9.913-16.505 14.16-32.01 16.379-59.782.643-8.048 1.03-67.525 1.03-158.23V29.8l-2.608-.655c-1.434-.36-10.997-2.516-21.25-4.79l-18.642-4.136-.298-6.229-.297-6.228h135.2l-.3 5.744-.3 5.744-31 9.158-.56 145.43c-.614 159.49-.208 148.98-6.634 171.93-10.44 37.292-32.217 66.656-63.806 86.038-6.895 4.23-32.74 16.962-34.435 16.962-.478 0-2.595-3.353-4.704-7.45zm-332.47-48.99c-.242-.242-5.155-.525-10.917-.629-20.87-.376-49.168-5.094-69.324-11.558-6.134-1.967-11.459-3.868-11.833-4.224-.624-.595-1.603-19.767-3.479-68.148-.394-10.175-.745-20.281-.779-22.458l-.062-3.959 10.927-1.83c6.01-1.008 11.437-1.635 12.061-1.396.624.24 1.7 4.194 2.392 8.79 1.992 13.233 8.096 39.876 10.39 45.353 5.309 12.666 16.13 23.15 32.31 31.296 8.908 4.486 17.543 6.483 27.92 6.458 31.713-.077 55.1-21.085 60.975-54.77 1.933-11.084 1.92-16.651-.058-26.23-2.102-10.175-6.298-19.153-13.107-28.043-10.084-13.165-15.982-17.56-75.035-55.901-21.72-14.103-33.26-23.311-41.969-33.492-17.23-20.145-24.044-42.354-22.95-74.817.724-21.524 3.42-33.424 11.214-49.5C25.623 26.264 42.67 11 63.607 4.138c8.658-2.838 9.032-2.87 31.761-2.792 29.66.103 54.192 3.55 78.76 11.062l8.76 2.68-.52 92.178-11.416.285c-6.278.156-11.762-.069-12.186-.5-.423-.432-1.933-9.785-3.354-20.784-2.892-22.38-4.48-29.707-8.025-37-6.577-13.534-25.377-24.566-47.019-27.591-26.186-3.66-43.788 8.51-50.123 34.656-2.102 8.675-2.39 27.836-.531 35.435 2.716 11.114 8.829 21.584 18.516 31.717 11.426 11.952 19.587 18.04 59.826 44.638 34.412 22.745 46.722 32.147 55.929 42.717 14.157 16.252 21.028 30.573 24.429 50.915 1.871 11.195 1.623 28.69-.576 40.514-9.104 48.95-46.728 84.93-93.578 89.486-10.861 1.056-16.822 1.25-17.5.573zm123.31-13.242l.3-5.682 30.5-10.086-.015-167.52-.016-167.52-30.469-9.027-.3-5.737-.3-5.736h133.1v5.98c0 5.477-.201 6.032-2.396 6.583-1.318.33-10.656 2.483-20.75 4.783l-18.353 4.182-.253 166.74-.253 166.74h29.687c28.26 0 29.9-.103 34.093-2.133 4.66-2.255 9.294-7.716 12.194-14.367 2.51-5.757 8.223-22.876 15.678-46.984 3.57-11.54 6.655-21.15 6.859-21.354.853-.854 24.742 3.318 25.154 4.393.247.644-2.5 23.71-6.106 51.259-3.604 27.549-6.554 50.335-6.554 50.638 0 .302-45.472.55-101.05.55h-101.05zm388.8-38.414c0-.603 1.748-3.081 3.883-5.508 2.263-2.57 4.35-6.263 5-8.846.705-2.799 1.117-16.06 1.117-35.946v-31.512l-3.75-.623c-6.963-1.158-6.787-1.951.5-2.254 11.178-.465 22.114.153 19.75 1.116-5.29 2.154-4.984.213-5.23 33.202-.138 18.586-.654 32.103-1.301 34.063-1.803 5.462-6.673 11.196-12.205 14.368-5.566 3.192-7.764 3.742-7.764 1.941zm42.764-17.899c-4.767-1.435-9.392-4.86-12.375-9.164-2.648-3.82-2.889-4.9-2.889-12.918 0-8.097.224-9.073 3.006-13.086 1.959-2.825 4.921-5.322 8.5-7.166 4.856-2.5 6.307-2.78 12.494-2.41 10.483.626 16.618 4.567 20.614 13.24 2.396 5.202 2.396 13.781 0 19.056-2.268 4.994-8.796 10.733-13.971 12.284-4.387 1.314-11.314 1.389-15.378.165zm14.191-4.956c3.832-4.102 5.394-10.488 4.842-19.793-.507-8.549-2.42-13.305-6.397-15.912-6.817-4.467-14.207.594-16.418 11.244-2.031 9.783-.014 19.342 5.31 25.164 3.142 3.436 9.106 3.106 12.663-.703zm27.913 4.442c-1.447-.786-3.017-2.23-3.488-3.21-.47-.979-1.086-9.627-1.368-19.219l-.513-17.438-3.25-.84c-1.787-.462-3.25-1.277-3.25-1.812 0-.534 1.463-.975 3.25-.98 1.788-.005 5.568-.287 8.401-.627l5.15-.619.35 18.024c.31 16.028.56 18.257 2.254 20.128 2.414 2.665 6.517 2.695 11.635.084l3.96-2.02v-31.71l-3-.6c-4.006-.801-3.833-2.648.25-2.658 1.788-.005 5.613-.293 8.5-.64l5.25-.63v42.329l3.021.604c5.066 1.013 4.239 2.034-2.194 2.706-10.74 1.123-10.826 1.1-10.826-2.86 0-4.034-.734-4.285-4.307-1.474-6.121 4.815-14.61 6.298-19.825 3.464zm142.63.565c-5.561-2.276-8.048-10.161-5.039-15.98 2.178-4.211 7.97-6.732 17.04-7.413 3.85-.29 7.164-.557 7.366-.594 1.115-.208-.66-13.291-1.984-14.614-1.846-1.846-7.836-2.934-11.328-2.057-2.264.568-2.554 1.15-2.554 5.122 0 4.312-.113 4.48-3 4.48-2.938 0-3-.104-3-5.05 0-4.887.12-5.102 3.732-6.61 2.053-.858 7.148-1.794 11.323-2.08 8.727-.599 13.897 1.147 15.806 5.336.708 1.555 1.138 8.91 1.138 19.477v16.978l3.021.604c5.066 1.014 4.238 2.034-2.195 2.707-9.773 1.021-10.826.889-10.826-1.36 0-2.443.19-2.442-5.14-.023-4.492 2.038-10.846 2.515-14.36 1.077zm17.277-5.612c1.94-1.359 2.223-2.454 2.223-8.63v-7.073l-4.486.506c-9.941 1.12-14.783 9.343-8.942 15.185 2.016 2.015 8.336 2.023 11.205.013zm-115.36 4.686c.296-.479 1.898-1.142 3.559-1.475l3.02-.604v-37.89l-2.988-.657c-1.643-.361-3.221-1.033-3.506-1.494-.558-.903 14.24-2.596 15.108-1.728.289.288.831 2.67 1.207 5.292l.682 4.769 2.958-3.92c1.627-2.157 3.652-4.47 4.499-5.14 2.096-1.657 7.236-1.59 9.58.123 1.83 1.34 1.843 1.57.262 4.886-1.595 3.344-1.832 3.46-6.087 2.98-3.848-.433-4.837-.123-7.554 2.365l-3.126 2.864-.138 13.5-.138 13.5 4.621.918c8.22 1.632 4.931 2.582-8.938 2.582-7.458 0-13.317-.392-13.021-.87zm38.58-.062c0-.514 1.238-1.076 2.75-1.25l2.75-.317.272-19.273c.21-14.915-.016-19.359-1-19.654-.7-.21-2.172-.697-3.272-1.084l-2-.703 2-.823c1.1-.452 5.037-.854 8.75-.892l6.75-.07v6.917l5.034-3.13c3.474-2.159 6.683-3.265 10.357-3.57 6.239-.517 8.962.673 11.659 5.096 1.72 2.82 1.943 5.115 1.946 19.961l.004 16.775 3 .6c6.384 1.277 2.502 2.35-8.5 2.35-6.325 0-11.5-.248-11.5-.552 0-.303 1.35-1.022 3-1.598l3-1.045v-32.66l-2.706-2.128c-2.98-2.343-5.328-2.158-11.294.89l-3.5 1.787-.275 16.173-.275 16.173 3.025.605c6.407 1.281 2.543 2.355-8.475 2.355-6.455 0-11.5-.41-11.5-.933zm98-.067c0-.55 1.035-1 2.3-1 4.62 0 4.7-.572 4.7-33.68v-31.282l-2.75-.657c-1.512-.362-3.2-.921-3.75-1.244-1.306-.766 5.702-2.006 11.75-2.08l4.75-.057v33.893c0 36.517-.204 35.107 5.082 35.107 1.055 0 1.918.45 1.918 1 0 .611-4.667 1-12 1s-12-.389-12-1zm-22.999-62.25c0-.137.855-2.5 1.9-5.25 1.734-4.565 2.15-4.973 4.795-4.696 4.552.478 7.746-2.83 10.79-11.174l2.695-7.39-8.785-21.264c-6.185-14.973-9.318-21.404-10.59-21.737-.993-.26-1.805-.87-1.805-1.356 0-.486 4.95-.883 11-.883 6.845 0 11 .387 11 1.025 0 .563-1.35 1.295-3 1.625-1.65.33-3.005.88-3.012 1.225-.023 1.297 10.365 26.124 10.925 26.11.323-.008 2.79-5.904 5.484-13.1 5.003-13.366 5.08-14.82.794-14.87-.72-.008-1.031-.466-.691-1.016.76-1.229 13.5-1.344 13.5-.122 0 .483-.638 1.407-1.418 2.054-.78.647-6.918 14.917-13.64 31.712-6.723 16.795-13.28 31.791-14.571 33.326-2.898 3.445-8.162 6.03-12.273 6.03-1.705 0-3.099-.112-3.098-.25zm-162.75-27.487c-5.978-.418-6.752-1.543-2-2.905l3.25-.932.264-32.735.263-32.735-3.034-.607c-3.15-.63-5.094-2.302-2.802-2.41.72-.034 4.572-.389 8.559-.789l7.25-.727v33.517l3.637-2.468c11.396-7.733 24.233-4.04 28.484 8.193.733 2.11 1.308 6.986 1.278 10.836-.067 8.341-2.774 14.866-8.115 19.555-6.953 6.104-11.924 6.428-23.403 1.523-1.131-.483-1.78-.072-2.156 1.365-.4 1.531-1.265 2.01-3.382 1.872-1.564-.102-5.206-.35-8.093-.553zm28.247-7.56c3.738-3.737 5.492-8.912 5.492-16.202 0-6.982-1.69-12.317-4.82-15.224-2.23-2.07-3.414-2.407-7.198-2.046-2.49.238-5.753 1.235-7.25 2.216l-2.72 1.783v29.52l3.25 1.602c5.347 2.637 9.474 2.123 13.246-1.649zm59.891 7.317c-8.388-3.389-8.465-17.289-.121-21.692 1.778-.938 6.608-1.958 10.733-2.267l7.5-.56.301-6.381c.26-5.496-.014-6.717-1.966-8.795-1.913-2.036-3.056-2.368-7.302-2.12l-5.033.296-.918 4.75c-.781 4.046-1.263 4.75-3.25 4.75-1.849 0-2.357-.57-2.451-2.75-.065-1.513-.178-3.86-.25-5.216-.11-2.081.65-2.763 4.869-4.367 7.307-2.777 18.476-2.814 22.174-.074 4.369 3.238 5.207 7.225 5.27 25.077l.056 16.17 3 .66c4.043.887 3.81 2.5-.36 2.5-1.85 0-5.387.277-7.863.616-4.227.58-4.541.46-5.15-1.966l-.649-2.583-4.638 2.466c-4.692 2.495-10.045 3.065-13.952 1.486zm15.662-5.545c2.873-1.486 2.95-1.725 2.95-9.088v-7.562l-4.25.706c-5.256.873-9.31 2.88-10.129 5.014-1.284 3.347-.609 8.468 1.38 10.455 2.387 2.388 6.017 2.56 10.05.475zm-184.05 4.554c0-.534 1.463-1.35 3.25-1.814l3.25-.842v-61.873l-3.25-.956c-6.056-1.783-3.29-2.544 9.25-2.544 12.121 0 16.157 1.092 9 2.434l-3.5.657v61.909h18.833l2.926-8.75c2.688-8.038 3.123-8.722 5.334-8.402 1.324.191 2.531.466 2.684.61.152.144-.409 4.488-1.246 9.652-.838 5.164-1.525 9.727-1.527 10.14-.002.413-10.13.75-22.504.75-13.892 0-22.5-.372-22.5-.971zm48.452.048c.314-.507 1.925-1.22 3.58-1.584l3.01-.66-.542-39.207-3.36-.87c-1.848-.478-3.11-1.119-2.805-1.424.304-.305 4.395-.853 9.09-1.218l8.537-.664.269 21.488.269 21.488 3.25.932c6.212 1.78 3.176 2.642-9.31 2.642-7.42 0-12.325-.378-11.988-.923zm76.548.035c0-.489 1.584-1.186 3.521-1.55l3.521-.66-.27-19.638-.272-19.638-3.36-.87c-4.849-1.255-3.032-2.184 5.392-2.756 8.196-.556 8.367-.415 8.507 7l.066 3.5 1.678-2.5c.922-1.375 3.158-4.017 4.968-5.87 2.824-2.893 3.747-3.28 6.506-2.728 5.18 1.036 6.167 2.642 4.181 6.806-1.595 3.344-1.887 3.496-5.854 3.049-3.48-.392-4.715-.018-7.407 2.248l-3.23 2.718.276 14.108.277 14.108 4.25.84c8.13 1.605 4.335 2.721-9.25 2.721-7.425 0-13.5-.4-13.5-.889zm81-.137c0-.563 1.36-1.296 3.02-1.629l3.021-.604-.541-39.116-3.386-.876c-5.002-1.295-2.62-2.548 5.555-2.922l7.168-.327 1.39 11 1.617-2.5c.889-1.375 3.097-4.017 4.907-5.871 2.824-2.893 3.747-3.28 6.507-2.728 4.95.99 5.842 2.442 4.112 6.697-1.434 3.528-1.557 3.59-6.167 3.15-4.008-.384-5.11-.073-7.453 2.103l-2.75 2.553v14.548c0 14.416.02 14.548 2.25 14.56 3.31.021 6.75 1.093 6.75 2.104 0 .486-5.85.883-13 .883-8.211 0-13-.377-13-1.025zm-150-57.975c-2.403-2.402-2.538-4.786-.443-7.777 3.241-4.628 11.443-1.761 11.443 4 0 2.579-3.6 5.777-6.5 5.777-1.375 0-3.4-.9-4.5-2zm-44-32.005c-3.575-.448-7.737-1.294-9.25-1.88-2.702-1.046-2.75-1.214-2.75-9.59 0-8.271.07-8.524 2.34-8.524 2.02 0 2.51.75 3.565 5.465.877 3.921 2.06 6.17 4.188 7.96 8.142 6.851 20.621 2.944 22.495-7.043 1.32-7.035-2.273-11.154-16.945-19.43-9.107-5.137-13.108-9.25-14.683-15.098-2.181-8.101 1.714-17.117 9-20.834 4.546-2.319 15.545-2.748 23.99-.937l5.05 1.083v8.417c0 8.203-.06 8.417-2.385 8.417-2.071 0-2.564-.744-3.75-5.66-1.656-6.865-4.6-9.416-11.648-10.093-4.414-.424-5.287-.156-8.324 2.557-2.919 2.608-3.393 3.67-3.393 7.595 0 5.906 2.905 8.892 16.722 17.188 12.342 7.41 15.871 11.33 16.55 18.392 1.501 15.62-10.917 24.506-30.772 22.016zm48.5-1.156c-5.403-2.023-8.693-5.056-11.106-10.239-2.581-5.543-3.176-14.248-1.409-20.6 1.361-4.892 6.622-10.917 11.444-13.107 4.71-2.139 14.702-2.487 22.625-.788 5.035 1.08 5.14 1.175 4.55 4.125-.333 1.661-.605 4.345-.605 5.965 0 2.481-.353 2.894-2.25 2.625-1.734-.246-2.323-1.078-2.567-3.625-.402-4.188-4.917-7.186-10.83-7.191-3.483-.003-4.633.552-7.2 3.475-3.537 4.029-4.681 8.415-4.582 17.567.162 14.848 9.585 21.306 23.418 16.05 4.697-1.785 6.941-1.41 5.502.918-.345.558-2.509 1.983-4.809 3.166-4.881 2.51-17.405 3.447-22.182 1.658zm93.5-.922c-8.32-3.772-12.744-10.032-13.711-19.407-1.801-17.452 14.238-29.59 32.095-24.287 6.272 1.862 13.016 9.11 14.593 15.68 3.877 16.163-6.743 30.054-22.977 30.054-3.399 0-7.22-.78-10-2.04zm16.771-4.308c7.382-8.407 6.717-29.508-1.129-35.836-1.181-.953-3.867-1.737-5.99-1.75-7.78-.045-12.35 9.278-11.437 23.332.726 11.2 5.062 17.646 11.87 17.646 2.964 0 4.307-.681 6.686-3.391zm34.229 4.308c-5.58-2.53-8.634-5.322-11.116-10.163-6.127-11.95-1.11-27.566 10.56-32.867 4.572-2.077 13.033-2.437 18.911-.805 8.765 2.434 15.658 12.505 15.636 22.847-.011 5.225-3.497 13.443-7.108 16.76-4.035 3.706-10.937 6.268-16.882 6.268-3.399 0-7.219-.779-10-2.04zm15.845-3.315c4.558-4.084 5.6-7.434 5.628-18.101.023-8.493-.313-10.636-2.226-14.217-2.56-4.792-4.756-6.284-9.247-6.284-4.51 0-6.704 1.505-9.162 6.284-2.621 5.095-3.604 17.198-1.906 23.48 1.35 4.992 6.22 10.957 9.366 11.468 2.978.484 4.767-.14 7.547-2.63zm-132.42 3.528c.296-.479 1.898-1.143 3.559-1.475l3.02-.604V70.804l-2.75-.657c-1.512-.362-3.2-.922-3.75-1.244-1.354-.795 5.797-2.009 12.25-2.08l5.25-.057v33.917l5.068-3.15c3.733-2.32 6.591-3.26 10.86-3.569 5.323-.385 6.07-.173 9.184 2.607l3.389 3.026.622 37.036 2.928.643c6.752 1.483 3.523 2.489-7.991 2.489-6.633 0-12.06-.248-12.06-.552 0-.304 1.35-1.023 3-1.598l3-1.046v-16.29c0-14.344-.22-16.565-1.843-18.57-2.324-2.87-6.566-2.965-11.774-.264l-3.882 2.014-.549 33.346 3.024.605c6.507 1.301 2.464 2.355-9.035 2.355-6.632 0-11.817-.392-11.52-.871zm149 0c.296-.479 1.898-1.143 3.559-1.475l3.02-.604v-65.96l-3.5-.656c-1.924-.36-3.5-.992-3.5-1.403 0-.738 9.64-2.03 15.148-2.03h2.853v70.05l3.02.603c6.867 1.374 3.334 2.346-8.52 2.346-6.94 0-12.376-.392-12.08-.87z" fill="#7a829c"/><path d="M429.564 441.184l-3.751-7.58 2.782-2.067c6.643-4.934 23.306-22.969 28.43-30.772 11.552-17.59 16.276-30.082 19.565-51.735 1.657-10.91 1.786-22.95 1.786-165.73V29.33l-19-4.26c-10.45-2.344-20.012-4.504-21.25-4.801-2.022-.486-2.25-1.146-2.25-6.521V7.767h134v6c0 4.231-.38 6-1.29 6-1.906 0-28.087 7.977-28.923 8.813-.394.394-.873 65.51-1.065 144.7-.346 142.5-.372 144.1-2.499 154.99-4.366 22.353-10.352 38.588-20.46 55.5-13.197 22.078-29.726 38.095-52.263 50.643-5.975 3.327-28.833 14.357-29.753 14.357-.17 0-1.996-3.411-4.06-7.58zm-353.69-50.027c-27.158-2.969-41.611-5.741-59.086-11.333l-12.586-4.027-1.292-34.265c-.71-18.846-1.571-40.023-1.913-47.06-.595-12.24-.536-12.813 1.378-13.238 4.025-.894 20.93-3.371 21.195-3.106.15.15 1.455 6.768 2.9 14.706 6.133 33.689 10.671 46.217 20.104 55.5 11.841 11.654 26.875 19.446 41.631 21.58 11.832 1.71 23.984-.24 35.298-5.666 15.29-7.333 28.205-23.811 32.902-41.981 2.589-10.013 3.026-24.89 1-34.07-4.898-22.2-18.926-38.367-51.75-59.644-56.778-36.802-60.808-39.658-72.28-51.21-11.536-11.614-15.382-17.165-21.168-30.548-12-27.757-10.568-71.716 3.233-99.208 8.62-17.173 21.916-31.027 36.762-38.31 5.045-2.474 11.872-5.203 15.172-6.064 13.986-3.649 45.658-2.726 74.5 2.17 16.094 2.733 18.638 3.31 31.25 7.082l8.75 2.617v91.685h-23.557l-2.365-18.75c-2.989-23.7-4.335-30.09-7.938-37.662-8.6-18.076-34.587-30.764-60.24-29.41-18.693.985-31.75 12.842-37.5 34.054-2 7.379-2.874 26.017-1.548 33.045 2.537 13.453 9.344 25.727 20.648 37.233 10.206 10.388 20.402 17.903 57.2 42.158 35.086 23.125 43.015 29.003 53.513 39.672 25.572 25.988 34.505 58.877 26.662 98.161-6.831 34.216-28.571 62.564-59.002 76.937-16.303 7.7-22.138 8.834-46.874 9.103-11.825.13-23.075.063-25-.148zm145.2-12.01l.3-5.62 30-10.368V28.27l-30.47-9-.03-11.5h132v5.892c0 5.287-.23 5.946-2.25 6.419-1.237.29-10.688 2.44-21 4.776l-18.75 4.25v333.66h30.04c27.842 0 30.32-.143 33.874-1.956 4.515-2.303 8.302-6.556 11.522-12.936 2.442-4.84 12.907-36.15 19.124-57.217 2.011-6.815 3.77-12.514 3.908-12.666.314-.346 24.62 3.53 25.092 4 .19.19-2.551 22.606-6.09 49.81-3.54 27.207-6.444 50.253-6.453 51.216-.015 1.655-5.477 1.75-100.57 1.75h-100.55zm387.8-38.627c0-.759 1.39-2.702 3.09-4.317 6.466-6.148 6.38-5.596 6.72-43.055l.308-34.118-2.309-.618c-1.27-.34-3.321-.625-4.559-.633-1.237-.008-2.25-.463-2.25-1.013 0-.618 5.186-1 13.56-1 12.671 0 16.475.943 9.461 2.346l-3.02.604-.045 31.275c-.047 33.629-.298 35.6-5.373 42.255-4.022 5.273-15.583 11.412-15.583 8.275zm41.807-18.192c-6.01-2.308-9.703-5.65-12.449-11.264-2.207-4.51-2.527-6.3-2.19-12.247.325-5.759.915-7.708 3.407-11.258 8.37-11.92 27.345-13.114 37.273-2.343 10.383 11.265 7.325 28.83-6.223 35.742-5.139 2.622-14.82 3.292-19.817 1.372zm16.196-5.293c2.81-3.572 4.226-9.654 4.105-17.621-.376-24.702-21.878-25.84-23.85-1.262-.884 11.005 3.835 21.521 10.242 22.827 3.06.624 7.292-1.133 9.503-3.943zm26.866 5.22c-1.447-.786-3.017-2.23-3.488-3.21-.47-.979-1.086-9.615-1.368-19.192l-.513-17.413-3.5-1.224c-4.305-1.506-2.998-2.078 6.687-2.928l7.186-.631.314 17.952c.284 16.29.498 18.156 2.311 20.156 1.61 1.777 2.785 2.115 6.066 1.745 2.238-.252 5.276-1.25 6.753-2.217l2.684-1.758v-31.611l-3-.66c-3.993-.876-3.832-2.497.25-2.508 1.787-.005 5.603-.291 8.48-.637l5.229-.628.27 21.374c.26 20.494.353 21.387 2.27 21.695 6.63 1.066 1.55 2.876-8.75 3.117-3.635.085-3.75-.02-3.75-3.413 0-4.033-.733-4.284-4.306-1.473-6.121 4.815-14.61 6.298-19.825 3.463zm141.03-.778c-6.674-4.496-5.949-15.518 1.273-19.34 1.967-1.041 6.603-1.99 11.33-2.317l8-.554.297-6.248c.264-5.544.016-6.53-2.205-8.75-1.9-1.9-3.535-2.498-6.797-2.487-5.729.02-6.644.78-6.938 5.76-.23 3.922-.453 4.225-3.106 4.225-2.815 0-2.852-.075-2.554-5.214l.302-5.213 6-1.855c4.14-1.28 8.129-1.744 12.867-1.497 6.267.326 7.12.64 9.75 3.584l2.883 3.226v35.018l3.02.605c5.067 1.013 4.239 2.033-2.194 2.706-10.178 1.064-10.826.954-10.826-1.833v-2.471l-4.649 2.471c-5.994 3.188-11.896 3.253-16.453.184zm18.88-4.268c1.934-1.355 2.223-2.459 2.223-8.5v-6.944h-3.435c-4.474 0-7.872 1.34-10.47 4.128-2.708 2.908-2.755 8.212-.095 10.873 2.443 2.443 8.592 2.674 11.777.443zm-115.23 4.641c.523-.503 2.075-1.066 3.45-1.25l2.5-.335.272-19.27.271-19.272-3.042-.608c-1.674-.335-3.247-.94-3.497-1.344-.451-.73 14.39-2.445 15.092-1.743.202.201.735 2.812 1.185 5.802l.819 5.435 1.607-3.021c3.991-7.502 10.527-10.588 15.196-7.174 1.665 1.218 1.679 1.562.211 5.074-1.345 3.22-1.904 3.668-3.844 3.08-1.249-.38-2.495-.691-2.77-.693-2.871-.018-4.445.685-7.466 3.337l-3.534 3.104v25.842l2.565.975c1.41.537 3.66.975 5 .975 1.339 0 2.435.45 2.435 1 0 .618-5.234 1-13.7 1-8.314 0-13.326-.36-12.75-.915zm38.45-.018c0-.514 1.238-1.076 2.75-1.25l2.75-.317.272-19.273c.21-14.915-.016-19.359-1-19.654-5.108-1.53-5.274-1.879-1.272-2.668 2.2-.434 6.137-.815 8.75-.847l4.75-.057v6.917l5.034-3.13c5.76-3.58 13.82-4.731 17.966-2.566 4.996 2.61 5.997 6.706 5.998 24.553l.002 16.275 3 .6c6.42 1.284 2.473 2.35-8.7 2.35-6.996 0-11.318-.363-10.75-.903.523-.496 1.85-1.065 2.95-1.263 1.892-.34 2.015-1.256 2.274-17.006l.274-16.646-2.708-2.13c-3.029-2.382-6.607-2.124-11.84.853l-3 1.707v32.888l2.75.317c1.513.174 2.75.736 2.75 1.25 0 .524-5.045.933-11.5.933-6.453 0-11.5-.41-11.5-.933zm98-.067c0-.55.863-1 1.918-1 5.271 0 5.082 1.235 5.082-33.132v-31.918l-3.02-.604c-1.662-.332-3.225-.933-3.473-1.335-.423-.685 8.903-2.01 14.14-2.01h2.353v68.05l3.02.604c6.772 1.354 3.407 2.345-7.961 2.345-7.373 0-12.06-.388-12.06-1zm-22.717-63.25c3.765-9.464 3.765-9.463 6.264-8.985 4.95.946 8.128-2.856 12.472-14.926 1.286-3.572 1.1-4.183-7.543-24.894-6.19-14.832-9.402-21.374-10.658-21.702-4.467-1.169.2-2.243 9.74-2.243 10.128 0 13.565 1.155 7.441 2.5-1.65.363-3 1.107-3 1.654 0 1.653 10.17 25.847 10.86 25.836.352-.005 2.852-5.896 5.555-13.089 4.052-10.786 4.666-13.236 3.5-13.975-.778-.492-1.752-.902-2.165-.91-.412-.009-.75-.466-.75-1.016 0-.564 2.833-1 6.5-1 6.223 0 8.089.986 5.111 2.7-.764.44-6.855 14.597-13.537 31.461-6.681 16.864-13.074 31.84-14.206 33.278-1.132 1.44-3.797 3.504-5.923 4.589-4.407 2.248-10.45 2.7-9.662.722zm-162.53-26.489c-6.43-.403-7.379-1.504-2.5-2.903l3.25-.932.264-32.69.263-32.69-2.763-.66c-6.72-1.607-3.637-3.048 6.986-3.267l5.75-.118v32.917l4.982-3.097c8.973-5.578 19.369-3.876 24.707 4.046 2.8 4.154 4.705 13.267 3.87 18.497-2.54 15.882-14.315 24.85-26.559 20.229-1.925-.727-4.247-1.64-5.16-2.029-1.169-.498-1.853-.095-2.317 1.365-.431 1.359-1.409 2.007-2.84 1.883-1.2-.104-4.77-.351-7.933-.55zm26.741-6.432c4.263-3.354 6.465-9.255 6.465-17.329 0-7.789-2.409-14.602-5.805-16.419-3.215-1.72-9.128-1.258-12.783 1l-3.368 2.082v29.933l3.25 1.413c4.714 2.049 9.08 1.806 12.241-.68zm60.523 5.476c-5.784-2.994-7.734-10.077-4.497-16.337 2.128-4.116 6.696-6.143 15.448-6.855l7.535-.613.294-6.705c.38-8.654-1.368-10.795-8.819-10.795-4.474 0-5.132.281-6 2.565-.536 1.411-.975 3.661-.975 5 0 1.905-.524 2.435-2.404 2.435-2.182 0-2.435-.475-2.75-5.155-.333-4.918-.21-5.213 2.66-6.412 5.509-2.302 15.026-3.548 19.47-2.55 8.742 1.964 10.01 5.422 10.019 27.287l.006 15.671 3 .66c4.412.968 3.65 2.497-1.25 2.51-2.338.006-5.938.29-8 .631-3.271.54-3.75.369-3.75-1.344 0-3.112-1.073-3.416-4.524-1.283-4.761 2.943-11.226 3.482-15.462 1.29zm16.036-4.83c2.868-1.483 2.95-1.735 2.95-9 0-8.328.083-8.257-7.5-6.5-5.063 1.173-7.5 4.141-7.5 9.136 0 6.93 5.42 9.792 12.05 6.364zm-184.05 4.67c0-.47 1.463-1.275 3.25-1.787l3.25-.932.265-30.343c.274-31.433.083-33.083-3.828-33.083-1 0-2.097-.45-2.437-1-.4-.646 3.843-1 12-1 11.853 0 15.387.973 8.52 2.346l-3.02.604v62.05h18.876l2.768-8.5c2.38-7.305 3.082-8.5 5.003-8.5 1.23 0 2.428.338 2.664.75.236.413-.247 5.138-1.073 10.5l-1.503 9.75h-22.367c-12.302 0-22.367-.385-22.367-.855zm48.405.105c.406-.412 2.169-1.24 3.917-1.838l3.178-1.088.273-18.281c.174-11.651-.106-18.738-.772-19.541-.575-.693-2.458-1.542-4.183-1.888-4.855-.97-2.726-1.774 6.627-2.501l8.555-.665v43.463l3.5.656c7.187 1.348 3.098 2.434-9.167 2.434-6.967 0-12.334-.337-11.928-.75zm77.047-.173c.314-.507 1.925-1.22 3.58-1.584l3.01-.66-.542-39.156-3.5-1.262c-1.925-.694-3.275-1.329-3-1.41.275-.08 3.975-.463 8.222-.85l7.723-.704.59 4.525c.326 2.488.681 5.196.79 6.018.11.82 1.452-.645 2.984-3.258 3.86-6.586 6.603-8.25 11.139-6.753 4.593 1.516 4.967 2.303 2.965 6.238-2.17 4.267-1.93 4.109-4.307 2.836-2.862-1.531-6.65-.36-10.148 3.14l-2.958 2.957v13.454c0 9.889.331 13.558 1.25 13.845.687.215 2.937.671 5 1.014 8.017 1.333 3.368 2.533-9.81 2.533-8.03 0-13.325-.377-12.988-.923zm80.548.003c0-.506 1.36-1.219 3.02-1.584l3.022-.663-.542-39.155-3.5-1.218c-3.383-1.178-3.417-1.238-1-1.806 1.375-.323 5.088-.715 8.252-.87l5.75-.283.1 3c.053 1.65.392 4.046.752 5.326.617 2.194.837 2.066 3.892-2.268 4.255-6.037 6.812-7.188 11.56-5.204l3.643 1.522-1.58 3.812c-1.996 4.816-1.82 4.676-4.263 3.368-2.793-1.494-6.521-.405-10.12 2.957l-2.986 2.79v13.63c0 10.028.33 13.732 1.25 14.02.688.215 2.938.671 5 1.014 7.893 1.312 3.434 2.533-9.25 2.533-7.252 0-13-.407-13-.92zm-150-58.079c-2.403-2.402-2.538-4.786-.443-7.777 3.241-4.628 11.443-1.762 11.443 4 0 2.578-3.6 5.777-6.5 5.777-1.375 0-3.4-.9-4.5-2zm-51.5-33.356l-4-1.202-.289-8.72c-.285-8.6-.256-8.721 2.091-8.721 2.061 0 2.54.717 3.58 5.364 1.27 5.677 3.762 8.8 8.433 10.57 6.67 2.526 14.123-.014 17.136-5.84 3.87-7.485.612-13.49-10.978-20.231-18.265-10.622-21.875-15.676-19.32-27.043 2.355-10.488 9.47-14.47 24.122-13.501 14.4.952 13.725.446 13.725 10.297 0 8.194-.054 8.383-2.412 8.383-2.064 0-2.51-.614-3.096-4.25-.91-5.648-2.932-8.618-7.038-10.334-5.9-2.465-10.215-1.856-14.054 1.984-7.381 7.381-3.639 13.925 13.933 24.365 5.8 3.445 11.472 7.444 12.606 8.885 7.316 9.3 3.725 23.946-7.165 29.217-3.592 1.739-6.147 2.119-13.84 2.056-5.189-.042-11.234-.618-13.434-1.28zm53.845-1c-7.297-3.487-10.547-9.206-11.097-19.527-.364-6.838-.116-8.178 2.423-13.11 4.008-7.785 9.116-11.119 17.99-11.74 5.557-.39 18.244.946 18.801 1.98.075.14-.041 2.866-.259 6.06-.359 5.276-.592 5.78-2.55 5.5-1.606-.229-2.28-1.183-2.653-3.755-.607-4.185-5.143-7.252-10.728-7.252-13.057 0-16.89 29.711-4.798 37.184 4.189 2.589 11.617 2.612 17.253.053 2.435-1.105 4.474-1.52 4.81-.978 1.886 3.053-6.995 7.167-16.537 7.66-6.4.33-8.255.025-12.655-2.076zm95.655.326c-8.016-3.73-12.454-9.705-13.641-18.37-1.023-7.465 1.269-14.326 6.538-19.572 7.185-7.154 17.913-9.11 27.104-4.944 9.43 4.275 13.46 10.741 13.436 21.559-.014 6.169-.423 7.802-3.003 11.974-4.323 6.994-10.83 10.746-19.314 11.14-5.089.236-7.66-.177-11.119-1.787zm13.435-1.506c1.84-.872 4.28-3.355 5.651-5.75 2.11-3.683 2.414-5.472 2.414-14.214 0-11.958-2.192-17.432-8.11-20.254-3.37-1.607-3.7-1.594-7.135.285-5.842 3.195-7.757 8.13-7.746 19.969.007 8.502.353 10.647 2.307 14.322 1.446 2.72 3.482 4.837 5.491 5.71 3.981 1.732 3.32 1.738 7.128-.069zm36.67.902c-22.279-11.102-14.11-44.365 10.895-44.365 10.574 0 20.316 6.913 22.938 16.277 5.743 20.51-14.805 37.57-33.833 28.088zm14.368-.79c5.761-2.407 8.027-8.073 8.027-20.076 0-11.894-1.912-16.779-7.827-20l-3.673-2-3.673 2c-5.493 2.991-7.755 8.187-8.178 18.784-.313 7.85-.072 9.353 2.266 14.133 1.789 3.656 3.64 5.854 5.851 6.944 3.935 1.94 3.137 1.916 7.207.215zm-130.05 1.554c.296-.48 1.898-1.143 3.559-1.475l3.02-.604v-66.1l-3.02-.605c-5.207-1.041-4.173-2.038 2.8-2.696 12.567-1.187 11.22-3.143 11.22 16.31v16.959l5.067-3.15c3.734-2.32 6.592-3.26 10.861-3.569 5.323-.385 6.07-.173 9.184 2.607l3.389 3.027.33 18.625.33 18.625 2.94.588c6.73 1.346 3.249 2.33-8.241 2.33-7.33 0-11.877-.363-11.31-.903.523-.497 1.85-1.066 2.95-1.264 1.91-.344 2-1.148 2-17.739v-17.378l-2.595-1.938c-2.221-1.658-3.16-1.786-6.5-.883-8.457 2.286-8.404 2.158-8.404 20.564v16.345l3 1.046c1.65.575 3 1.294 3 1.598 0 .304-5.427.552-12.06.552-6.632 0-11.816-.392-11.52-.87zm149 0c.296-.48 1.898-1.143 3.559-1.475l3.02-.604v-65.96l-3.5-.656c-4.636-.87-4.476-2.432.25-2.443 2.063-.004 6.113-.292 9-.639l5.25-.63v70.328l3.022.605c6.865 1.373 3.332 2.345-8.521 2.345-6.94 0-12.376-.391-12.08-.87z" fill="#787c87"/><path d="M429.564 441.184l-3.751-7.58 2.782-2.067c6.643-4.934 23.306-22.969 28.43-30.772 11.552-17.59 16.276-30.082 19.565-51.735 1.657-10.91 1.786-22.95 1.786-165.73V29.33l-19-4.26c-10.45-2.344-20.012-4.504-21.25-4.801-2.022-.486-2.25-1.146-2.25-6.521V7.767h134v6c0 4.231-.38 6-1.29 6-1.906 0-28.087 7.977-28.923 8.813-.394.394-.873 65.51-1.065 144.7-.346 142.5-.372 144.1-2.499 154.99-4.366 22.353-10.352 38.588-20.46 55.5-13.197 22.078-29.726 38.095-52.263 50.643-5.975 3.327-28.833 14.357-29.753 14.357-.17 0-1.996-3.411-4.06-7.58zm-353.69-50.027c-27.158-2.969-41.611-5.741-59.086-11.333l-12.586-4.027-1.292-34.265c-.71-18.846-1.571-40.023-1.913-47.06-.595-12.24-.536-12.813 1.378-13.238 4.025-.894 20.93-3.371 21.195-3.106.15.15 1.455 6.768 2.9 14.706 6.133 33.689 10.671 46.217 20.104 55.5 11.841 11.654 26.875 19.446 41.631 21.58 11.832 1.71 23.984-.24 35.298-5.666 15.29-7.333 28.205-23.811 32.902-41.981 2.589-10.013 3.026-24.89 1-34.07-4.898-22.2-18.926-38.367-51.75-59.644-56.778-36.802-60.808-39.658-72.28-51.21-11.536-11.614-15.382-17.165-21.168-30.548-12-27.757-10.568-71.716 3.233-99.208 8.62-17.173 21.916-31.027 36.762-38.31 5.045-2.474 11.872-5.203 15.172-6.064 13.986-3.649 45.658-2.726 74.5 2.17 16.094 2.733 18.638 3.31 31.25 7.082l8.75 2.617v91.685h-23.557l-2.365-18.75c-2.989-23.7-4.335-30.09-7.938-37.662-8.6-18.076-34.587-30.764-60.24-29.41-18.693.985-31.75 12.842-37.5 34.054-2 7.379-2.874 26.017-1.548 33.045 2.537 13.453 9.344 25.727 20.648 37.233 10.206 10.388 20.402 17.903 57.2 42.158 35.086 23.125 43.015 29.003 53.513 39.672 25.572 25.988 34.505 58.877 26.662 98.161-6.831 34.216-28.571 62.564-59.002 76.937-16.303 7.7-22.138 8.834-46.874 9.103-11.825.13-23.075.063-25-.148zm145.2-12.01l.3-5.62 30-10.368V28.27l-30.47-9-.03-11.5h132v5.892c0 5.287-.23 5.946-2.25 6.419-1.237.29-10.688 2.44-21 4.776l-18.75 4.25v333.66h30.04c27.842 0 30.32-.143 33.874-1.956 4.515-2.303 8.302-6.556 11.522-12.936 2.442-4.84 12.907-36.15 19.124-57.217 2.011-6.815 3.77-12.514 3.908-12.666.314-.346 24.62 3.53 25.092 4 .19.19-2.551 22.606-6.09 49.81-3.54 27.207-6.444 50.253-6.453 51.216-.015 1.655-5.477 1.75-100.57 1.75h-100.55zm388.26-38.448c-.363-.586-.445-1.28-.183-1.543.263-.262.744.218 1.07 1.067.675 1.762.1 2.072-.887.476zm9.25-4.376c1.766-1.451 4.399-4.083 5.852-5.848 1.453-1.765 2.298-2.534 1.877-1.709-1.954 3.829-4.522 6.652-7.592 8.348l-3.346 1.848zm.738-44.557c0-17.875.136-25.188.301-16.25.166 8.938.166 23.562 0 32.5-.165 8.938-.3 1.625-.3-16.25zm35.553 31.617c0-.849 4.762-1.22 6.569-.513 1.366.535.688.777-2.319.826-2.337.04-4.25-.102-4.25-.313zm45.5-.559c2.2-.38 5.125-.995 6.5-1.365 2.003-.539 1.904-.385-.5.773-1.65.794-4.575 1.409-6.5 1.364l-3.5-.08 4-.692zm17.66-2.807c.154-3.603.176-3.625.559-.562.29 2.316.998 3.304 2.59 3.614 1.807.35 1.71.45-.559.561-2.561.127-2.739-.12-2.59-3.613zm122.6 3.042c1.244-.239 3.044-.23 4 .02s-.062.447-2.262.435c-2.2-.01-2.982-.215-1.738-.455zm17.507.015c.973-.254 2.323-.237 3 .037.677.274-.119.481-1.769.46-1.65-.02-2.204-.244-1.23-.497zm-208.27-1.307c-1.828-1.182-.249-1.182 2.5 0 1.319.566 1.49.878.5.914-.825.03-2.175-.381-3-.914zm42.405-1.25l-1.905-2.25 2.5 1.989c1.375 1.094 2.688 2.107 2.917 2.25.229.143-.039.26-.595.26-.557 0-1.87-1.012-2.917-2.25zm35.68 1.262c.935-.547 2.781-.57 4.5-.056 2.69.805 2.57.876-1.585.927-3.22.04-4.049-.208-2.915-.871zm10.168.401c.87-.87 24.75-1.034 26.093-.179.635.404-5.108.742-12.763.75-7.654.008-13.653-.248-13.33-.57zm39.03-.029c.338-.338 5.386-.615 11.217-.615 5.832 0 10.88.277 11.218.615.339.339-4.71.616-11.218.616s-11.556-.277-11.218-.616zm29.992.007c.838-.837 20.554-.895 21.387-.062.37.369-4.429.67-10.662.67-6.233 0-11.059-.273-10.725-.608zm26.18-1.846c-1.35-1.35-2.435-3.262-2.41-4.25.03-1.2.446-.856 1.256 1.04.666 1.558 2.333 3.455 3.705 4.214 1.371.759 1.91 1.396 1.198 1.416-.712.019-2.4-1.07-3.75-2.42zm33.294 1.424c1.341-.54 3.159-.54 4.5 0 1.837.738 1.425.904-2.25.904s-4.087-.166-2.25-.904zm8.565.383c.356-.357 5.615-.648 11.685-.648s11.329.291 11.685.648c.356.356-4.902.648-11.685.648s-12.042-.292-11.685-.649zm-203.25-3.18c2.453-1.556 5.254-3.918 6.225-5.25 1.664-2.285 1.703-2.293.684-.14-1.118 2.358-8.478 8.218-10.323 8.218-.576 0 .96-1.273 3.414-2.828zm-6.068-.672c1.291-1.375 2.573-2.5 2.848-2.5.275 0-.557 1.125-1.848 2.5-1.292 1.375-2.574 2.5-2.849 2.5-.275 0 .557-1.125 1.849-2.5zm184.55 1.543c-1.852-.673-1.84-.735.249-1.281 1.207-.316 2.428-.198 2.712.262.787 1.273-.78 1.811-2.961 1.019zm-208.61-3.793l-3.447-3.75 3.75 3.446c3.49 3.207 4.21 4.054 3.447 4.054-.168 0-1.855-1.688-3.75-3.75zm70.479 2.055c.145-.993.597-1.73 1.003-1.639 1.518.343 1.576 1.084.175 2.247-1.174.974-1.394.861-1.178-.608zm14.999-19.306c0-11.825.144-16.662.321-10.75.177 5.913.177 15.588 0 21.5-.177 5.913-.321 1.075-.321-10.75zm17.994 2c0-10.725.147-15.112.326-9.75.18 5.362.18 14.138 0 19.5s-.326.975-.326-9.75zm-115.97-12c0-16.775.136-23.638.304-15.25.167 8.388.167 22.112 0 30.5-.168 8.388-.304 1.525-.304-15.25zm124.95 17c0-7.425.157-10.462.35-6.75.192 3.712.192 9.788 0 13.5-.193 3.713-.35.675-.35-6.75zm128.05-18.5c0-17.6.136-24.659.302-15.687.166 8.973.165 23.372 0 32-.167 8.628-.303 1.287-.302-16.313zm-42.823 27.961c-.343-.893-.595-2.15-.56-2.793.034-.642.494-.09 1.02 1.227.528 1.318.78 2.575.561 2.793-.219.22-.678-.333-1.021-1.227zm-150.22-16.46c0-9.076.151-12.789.336-8.25.186 4.537.186 11.961 0 16.5-.185 4.537-.336.824-.336-8.25zm103.97 5.5c.002-6.05.167-8.397.366-5.214.199 3.183.197 8.133-.004 11-.202 2.867-.365.263-.362-5.787zm97.705 8.916c.048-1.165.284-1.402.604-.604.289.722.253 1.584-.08 1.917-.331.332-.568-.259-.524-1.313zm-172.79-4.917c.008-2.75.201-3.756.431-2.236.23 1.52.224 3.77-.013 5-.238 1.23-.426-.014-.418-2.764zm-19.875-13.5c0-9.625.15-13.562.333-8.75.183 4.813.183 12.688 0 17.5-.183 4.813-.333.875-.333-8.75zm113.94 8.5c-.003-4.95.166-7.1.375-4.78.21 2.321.213 6.371.006 9-.207 2.63-.378.73-.381-4.22zm26.645 5.778c0-.58.926-2.118 2.059-3.417l2.06-2.36-1.757 3c-2.312 3.948-2.362 4.007-2.362 2.777zm-192.68-8.278c0-3.575.181-5.037.403-3.25.222 1.788.222 4.713 0 6.5-.222 1.788-.403.325-.403-3.25zm24.759 4.417c.048-1.165.284-1.402.604-.604.289.722.253 1.584-.08 1.917-.331.332-.568-.259-.524-1.313zm163.14-.95c1.495-1.573 2.899-2.66 3.118-2.414.219.246-1.005 1.534-2.72 2.861l-3.118 2.414zm-197.91-3.967c.006-3.3.192-4.529.414-2.732.223 1.798.218 4.498-.01 6-.228 1.503-.41.032-.404-3.268zm208.42 2.376c.678-.683 1.485-.99 1.793-.682.308.307-.247.867-1.234 1.242-1.425.543-1.54.428-.56-.56zm-162.54-2.376c.02-1.65.244-2.203.498-1.23.253.972.236 2.322-.038 3-.273.677-.48-.12-.46-1.77zm157.62.817c.721-.288 1.584-.253 1.916.08.333.332-.258.568-1.312.524-1.165-.048-1.402-.284-.604-.604zm5.687-.317c-2.343-.596-1.577-.785 3.5-.866 4.53-.072 6.046.19 5 .866-1.706 1.103-4.167 1.103-8.5 0zm-174.34-5c0-1.375.227-1.937.504-1.25.278.688.278 1.813 0 2.5-.277.688-.504.125-.504-1.25zm9.921-.583c.048-1.165.285-1.402.604-.604.29.722.254 1.584-.079 1.917-.332.332-.568-.259-.525-1.313zm183.92-4.482c0-6.003-1.093-8.377-4.775-10.375-1.499-.814-2.128-1.497-1.398-1.519.73-.022 2.642 1.275 4.25 2.883 2.532 2.532 2.923 3.67 2.923 8.5 0 3.067-.225 5.577-.5 5.577s-.5-2.28-.5-5.066zm-217.92 1.482c.048-1.165.285-1.402.604-.604.29.722.254 1.584-.079 1.917-.332.332-.568-.259-.525-1.313zm146.12-1.917c.02-1.65.245-2.203.498-1.23.254.972.237 2.322-.037 3-.274.676-.481-.12-.46-1.77zm-37.042 0c.873-1.1 1.396-2.52 1.164-3.158-.232-.637-.025-1.404.46-1.704 1.712-1.058.564 3.448-1.31 5.143-1.831 1.657-1.843 1.647-.314-.28zm78.847.594c0-.498.9-.671 2-.383 1.1.287 2 .695 2 .906 0 .21-.9.383-2 .383s-2-.407-2-.906zm-158.93-5.362c-2.848-3.51-2.96-3.805-.658-1.732 2.392 2.155 5.232 6.036 4.377 5.982-.157-.01-1.83-1.922-3.719-4.25zm-35.363.864c.988-1.322 2.697-2.951 3.797-3.62 1.1-.67.45.412-1.446 2.404-3.978 4.178-4.935 4.674-2.35 1.216zm155.48-2.095c2.555-2.938 2.48-2.907 2.48-1.044 0 .8-.328 1.253-.729 1.005-.4-.247-.986.222-1.302 1.044-.315.822-1.034 1.495-1.598 1.495-.564 0-.046-1.125 1.15-2.5zm38.008 0c.02-1.65.245-2.204.498-1.231.254.972.237 2.323-.037 3-.274.677-.481-.12-.46-1.77zm-168.76-1.75l-2.937-3.25 3.25 2.937c1.788 1.615 3.25 3.078 3.25 3.25 0 .772-.825.092-3.563-2.937zm154.3-.006l-1.764-3.244 2.014 2.36c1.714 2.01 2.63 4.155 1.765 4.134-.138-.003-1.044-1.466-2.015-3.25zm19.343 1.673c.048-1.165.285-1.402.604-.605.29.722.254 1.585-.079 1.917-.332.332-.568-.258-.525-1.312zm14.627-.14c-.948-.948-4.081-2.01-6.964-2.36l-5.241-.636 4.694-.14c3.692-.111 5.293.385 7.5 2.327 1.543 1.358 2.565 2.483 2.27 2.5-.295.017-1.311-.744-2.259-1.692zm-92.706-2.777c1.292-1.375 2.574-2.5 2.849-2.5.275 0-.557 1.125-1.849 2.5-1.292 1.375-2.573 2.5-2.848 2.5-.275 0 .556-1.125 1.848-2.5zm32.08.916c.047-1.165.284-1.402.603-.604.29.722.254 1.584-.079 1.917-.332.332-.568-.259-.525-1.313zm-140.35-.54c.677-.684 1.484-.991 1.792-.683.308.308-.247.867-1.233 1.242-1.425.543-1.54.428-.56-.56zm152.08.44c.721-.288 1.584-.253 1.916.08.332.332-.258.568-1.313.525-1.165-.048-1.402-.285-.604-.605zm-136.81-1.816c-1.376-.786-2.05-1.43-1.5-1.43.55 0 2.124.644 3.5 1.43 1.374.786 2.05 1.429 1.5 1.429-.55 0-2.126-.643-3.5-1.43zm103.98-.023c-1.058-1.274-.996-1.42.377-.893.903.346 1.641 1.031 1.641 1.523 0 1.286-.579 1.105-2.019-.63zm65.018.523c.825-.534 2.175-.945 3-.915.99.036.819.348-.5.915-2.749 1.18-4.328 1.18-2.5 0zm-152.95-1.054c1.337-.845 8.803-1.4 7.865-.584-.23.2-2.418.618-4.865.931-2.877.368-3.937.246-3-.347zm28.448.08c1.91-.846 8.285-1.418 7.417-.666-.23.199-2.442.629-4.917.956-3.005.398-3.835.301-2.5-.29zm27.5-.095c-2.175-.637-2.013-.745 1.25-.832 3.808-.101 4.765.33 2.5 1.126-.687.241-2.375.11-3.75-.294zm37.812-.615c.722-.288 1.585-.253 1.917.08.332.332-.258.568-1.313.525-1.165-.048-1.402-.285-.604-.605zm75.438-20.006c.963-.251 2.538-.251 3.5 0 .963.252.175.458-1.75.458s-2.712-.206-1.75-.458zm-239.75-1.782c-3.722-1.227-3.032-1.326 9.917-1.424 7.654-.057 13.59.22 13.194.618-.397.398-5.085.612-10.417.477-6.768-.171-9.241.059-8.194.762 1.986 1.335.4 1.182-4.5-.433zm245.58 1.107c.23-.2 1.542-.9 2.917-1.555 2.357-1.123 2.39-1.102.559.364-1.593 1.277-4.848 2.392-3.476 1.191zm-6.053-1.135c0-.55.437-1.675.97-2.5.533-.825.97-1.05.97-.5s-.437 1.675-.97 2.5c-.533.825-.97 1.05-.97.5zm22.97-3.5c-1.086-.702-.257-.954 3-.915 3.424.042 4.022.26 2.5.915-2.678 1.15-3.72 1.15-5.5 0zm13-1l-2.5-.8 2.75-.1c1.512-.055 2.75.35 2.75.9s-.113.955-.25.9a133.58 133.58 0 00-2.75-.9zm-20.363-2.5c2.313-3.949 2.362-4.008 2.362-2.778 0 .581-.926 2.118-2.059 3.417l-2.06 2.36zm-3.638-2.878c0-.208.788-.995 1.75-1.75 1.587-1.244 1.622-1.208.378.378-1.306 1.665-2.128 2.195-2.128 1.372zm5.031-9.122c0-.55.436-1.675.97-2.5.533-.825.969-1.05.969-.5s-.436 1.675-.97 2.5c-.533.825-.969 1.05-.969.5zm-72.952-7.084c.048-1.165.285-1.402.604-.604.29.722.254 1.585-.079 1.917-.332.332-.568-.258-.525-1.313zm78.992 1.084c0-.55.643-2.125 1.43-3.5.785-1.375 1.428-2.05 1.428-1.5 0 .55-.643 2.125-1.429 3.5s-1.429 2.05-1.429 1.5zm-267.07-1.25c0-.413 9.865-.614 21.923-.447l21.924.304.44-2.304c.39-2.04.456-1.99.577.447l.136 2.75h-22.5c-12.375 0-22.5-.338-22.5-.75zm49 0c0-.845 22.935-.65 23.787.202.301.301-4.928.548-11.619.548-6.692 0-12.167-.338-12.168-.75zm26.001-.463c0-1.044 1.16-.972 2.987.184 1.17.739 1.009.904-.75.772-1.23-.093-2.237-.523-2.237-.956zm35.083.848c.23-.2 1.542-.9 2.917-1.555 2.357-1.123 2.389-1.102.559.364-1.593 1.277-4.848 2.392-3.476 1.191zm15.917-.385c0-.413 5.85-.75 13-.75s13 .337 13 .75c0 .412-5.85.75-13 .75s-13-.338-13-.75zm39.861-1.31l-2.36-2.06 3 1.758c3.948 2.312 4.006 2.362 2.777 2.362-.581 0-2.119-.927-3.417-2.06zm33.14 1.676c0-.887 4.045-1.351 4.557-.522.308.498-.591.906-1.999.906-1.407 0-2.559-.173-2.559-.384zm7-.366c0-.413 5.85-.75 13-.75s13 .337 13 .75c0 .412-5.85.75-13 .75s-13-.338-13-.75zm-111.13-2c-1.27-1.62-1.223-1.64.627-.283 1.1.807 2.187 1.594 2.416 1.75.23.155-.053.283-.627.283-.575 0-1.662-.788-2.417-1.75zm86.565.85c.432-.7-.344-1.106-2.13-1.116-1.544-.008-3.483-.472-4.308-1.03-1.514-1.024-.825-.963 6.584.586 1.842.385 2.372.197 1.845-.655-.466-.754-.313-.931.416-.48 1.6.988 1.467 1.357-.966 2.66-1.49.797-1.919.807-1.44.034zm-116.01-23.1c0-12.376.144-17.439.32-11.25.174 6.187.174 16.311 0 22.5-.176 6.187-.32 1.124-.32-11.25zm33.385 21.316c.722-.288 1.584-.253 1.917.08.332.332-.259.568-1.313.525-1.165-.048-1.402-.285-.604-.605zm5.188.29c0-.216.698-.66 1.551-.988.89-.342 1.292-.174.941.393-.587.95-2.492 1.405-2.492.596zm13.5-1.606c.995-1.1 2.035-2 2.31-2 .275 0-.315.9-1.31 2-.996 1.1-2.035 2-2.31 2-.275 0 .314-.9 1.31-2zm94.92-17.5c-.001-11 .145-15.636.324-10.303.18 5.333.18 14.333.002 20-.178 5.666-.325 1.303-.326-9.697zm-204.98-12c0-17.05.135-24.166.303-15.812.167 8.353.167 22.303 0 31-.166 8.696-.303 1.862-.303-15.188zm10-.5c0-17.325.137-24.412.303-15.75.167 8.662.167 22.838 0 31.5-.166 8.662-.302 1.575-.302-15.75zm38.974 12c0-10.725.147-15.112.326-9.75.18 5.362.18 14.138 0 19.5s-.326.975-.326-9.75zm84.976 5.5c.002-7.7.158-10.718.348-6.707.19 4.012.19 10.312-.003 14-.191 3.689-.347.407-.345-7.293zm79.994 0c.002-7.15.16-9.944.354-6.209.192 3.736.191 9.586-.003 13-.195 3.415-.353.359-.351-6.791zm-176.19 8c.02-1.65.244-2.204.498-1.231.253.972.236 2.323-.038 3-.273.677-.48-.12-.46-1.77zm46.205-12c0-8.25.156-11.492.344-7.205.188 4.288.187 11.038-.003 15-.19 3.963-.343.455-.342-7.795zm95.9 8.5c0-3.025.187-4.263.416-2.75.23 1.512.23 3.987 0 5.5-.229 1.512-.416.275-.416-2.75zm-148.27 3.5c0-.55.436-1.675.969-2.5.533-.825.97-1.05.97-.5s-.437 1.675-.97 2.5c-.533.825-.97 1.05-.97.5zm73.05-1.5c1.457-3.061 1.92-3.629 1.92-2.358 0 .536-.7 1.849-1.556 2.916-1.466 1.83-1.487 1.799-.364-.558zm8.99 1.5c0-.55.643-2.125 1.43-3.5.785-1.375 1.428-2.05 1.428-1.5 0 .55-.643 2.125-1.429 3.5s-1.429 2.05-1.429 1.5zm149.96 0c0-.55.436-1.675.97-2.5.533-.825.969-1.05.969-.5s-.436 1.675-.97 2.5c-.533.825-.969 1.05-.969.5zm-224.95-5.084c.048-1.165.285-1.402.604-.604.29.722.254 1.584-.079 1.917-.332.332-.568-.259-.525-1.313zm211.54.045c-.965-2.515-.68-3.164.499-1.136.583 1.003.85 2.035.593 2.293-.258.257-.749-.263-1.092-1.157zm-91.906-4.483c1.77-1.857 3.388-3.174 3.595-2.927.207.247-1.241 1.766-3.218 3.376l-3.595 2.927zm6.282 1.644c0-.208.788-.995 1.75-1.75 1.586-1.244 1.622-1.208.378.378-1.307 1.665-2.128 2.195-2.128 1.372zm-129.23-2.79c.581-.582 1.647-.86 2.368-.62.75.25.296.703-1.056 1.056-1.664.435-2.054.305-1.312-.437zm232.26.668c0-.55.436-1.675.97-2.5.533-.825.969-1.05.969-.5s-.436 1.675-.97 2.5c-.533.825-.969 1.05-.969.5zm-98.262-1.669c.581-.58 1.647-.86 2.368-.62.75.25.296.704-1.056 1.057-1.664.435-2.054.305-1.312-.437zm2.732-1.831c-1.5-.645-.798-.877 2.809-.93 2.967-.044 4.572.313 4.19.93-.737 1.194-4.22 1.194-7 0zm92.57.5c0-.55.644-2.125 1.43-3.5.786-1.375 1.429-2.05 1.429-1.5 0 .55-.643 2.125-1.43 3.5-.785 1.375-1.428 2.05-1.428 1.5zm-18.907-3.043c-1.676-3.678-1.356-4.462.456-1.119.846 1.561 1.35 3.025 1.122 3.254-.229.229-.939-.732-1.578-2.135zm-65.842-5.457c0-3.575.181-5.038.403-3.25.222 1.787.222 4.712 0 6.5-.222 1.787-.403.325-.403-3.25zm75.303 4.46c-.965-2.514-.68-3.163.498-1.135.584 1.003.85 2.035.593 2.293-.257.257-.748-.263-1.091-1.157zm16.407-2.96c0-.55.436-1.675.97-2.5.532-.825.968-1.05.968-.5s-.436 1.675-.969 2.5c-.533.825-.97 1.05-.97.5zm-135.53-4.5c.995-1.1 2.035-2 2.31-2 .275 0-.315.9-1.31 2-.996 1.1-2.035 2-2.31 2-.275 0 .314-.9 1.31-2zm26.255-.5c.263-1.375.65-2.5.861-2.5.211 0 .384 1.125.384 2.5s-.388 2.5-.862 2.5-.646-1.125-.383-2.5zm53.745.5c.995-1.1 2.035-2 2.31-2 .275 0-.315.9-1.31 2-.996 1.1-2.035 2-2.31 2-.275 0 .314-.9 1.31-2zm-110.94-.707c-.543-1.425-.428-1.54.56-.56.683.678.99 1.485.682 1.793-.308.308-.867-.247-1.242-1.233zm137 0c-.543-1.425-.428-1.54.56-.56.683.678.99 1.485.682 1.793-.308.308-.867-.247-1.242-1.233zm-128-3c-.543-1.425-.428-1.54.56-.56.683.678.99 1.485.682 1.793-.308.308-.867-.247-1.242-1.233zm106.17.582c.678-.683 1.485-.99 1.793-.682.308.308-.247.867-1.233 1.242-1.426.543-1.54.428-.56-.56zm-133.75-2.627c2.04-3.077 4.896-5.297 6.701-5.208.449.022-.484.744-2.073 1.605-2.292 1.24-2.602 1.765-1.5 2.536 1.157.808 1.141.904-.091.568-.814-.221-2.316.532-3.337 1.674-1.305 1.46-1.216 1.111.3-1.175zm15.422.502l-1.905-2.25 2.25 1.905c1.237 1.047 2.25 2.06 2.25 2.25 0 .8-.805.21-2.595-1.905zm35.595.25c.588-1.1 1.295-2 1.57-2 .275 0 .018.9-.57 2-.589 1.1-1.296 2-1.57 2-.276 0-.019-.9.57-2zm80 0c.588-1.1 1.295-2 1.57-2 .275 0 .018.9-.57 2-.589 1.1-1.296 2-1.57 2-.276 0-.019-.9.57-2zm57 1.357c0-.536.7-1.849 1.555-2.916 1.466-1.83 1.487-1.799.364.559-1.457 3.06-1.92 3.628-1.92 2.357zm-130.19-1.04c.722-.29 1.584-.254 1.916.078.333.333-.258.57-1.312.526-1.165-.048-1.402-.285-.604-.605zm14.345-1.317c0-1.375.227-1.938.504-1.25.278.687.278 1.812 0 2.5-.277.687-.504.125-.504-1.25zm29.406.293c-.543-1.425-.428-1.54.56-.56.683.678.99 1.485.682 1.793-.308.308-.867-.247-1.242-1.233zm36.248 1.024c.722-.29 1.584-.254 1.916.078.333.333-.258.57-1.312.526-1.165-.048-1.402-.285-.604-.604zm6.646-2.115c.433-1.41.191-2.923-.626-3.914-1.196-1.45-1.1-1.492.93-.41 1.946 1.037 2.102 1.514 1.115 3.414-1.657 3.186-2.233 3.555-1.42.91zm-119.37-.595c-.636-.766-2.505-1.951-4.155-2.634-1.65-.684-2.801-1.44-2.56-1.682.644-.643 6.058 2.32 7.57 4.143.715.861 1.075 1.566.8 1.566-.275 0-1.02-.627-1.655-1.393zm-28.09-15.044v-15.437l-3.25-.403c-3.2-.397-3.191-.406.5-.563l3.75-.16v16c0 8.8-.224 16-.5 16-.274 0-.5-6.947-.5-15.437zm57 13.462c0-.525.9-1.436 2-2.025s2-.93 2-.758c0 .173-.9 1.084-2 2.026-1.1.942-2 1.283-2 .757zm24.813.292c.722-.29 1.584-.254 1.916.079.333.332-.258.568-1.312.525-1.165-.048-1.402-.285-.604-.604zm8 0c.722-.29 1.584-.254 1.916.079.333.332-.258.568-1.312.525-1.165-.048-1.402-.285-.604-.604zm11.629-.872c-1.864-1.494-1.852-1.512.309-.465 1.237.6 2.25 1.3 2.25 1.555 0 .765-.52.544-2.56-1.09zm35.559.58c0-.525.9-1.436 2-2.025s2-.93 2-.758c0 .173-.9 1.084-2 2.026-1.1.942-2 1.283-2 .757zm-177.5-1.025c-1.26-.542-1.446-.86-.5-.86.825 0 2.4.387 3.5.86 1.26.542 1.445.86.5.86-.825 0-2.4-.387-3.5-.86zm107.94-.555c-1.864-1.494-1.852-1.512.309-.465 1.237.6 2.25 1.3 2.25 1.555 0 .765-.52.544-2.56-1.09zm127.29.43c.678-.683 1.485-.99 1.793-.682.308.308-.247.867-1.234 1.243-1.425.542-1.54.427-.56-.56zm-158.92-.558c.722-.29 1.584-.254 1.916.079.333.332-.258.568-1.312.525-1.165-.048-1.402-.285-.604-.604zm80 0c.722-.29 1.584-.254 1.916.079.333.332-.258.568-1.312.525-1.165-.048-1.402-.285-.604-.604zm37 0c.722-.29 1.584-.254 1.916.079.333.332-.258.568-1.312.525-1.165-.048-1.402-.285-.604-.604zm16.188.3c0-.211.9-.62 2-.907 1.1-.288 2-.115 2 .383 0 .499-.9.907-2 .907s-2-.173-2-.384zm15.75-.28c.687-.277 1.812-.277 2.5 0 .687.278.125.505-1.25.505s-1.938-.227-1.25-.504zm-219.5-1.026c.962-.252 2.537-.252 3.5 0 .962.251.175.457-1.75.457s-2.713-.206-1.75-.457zm75.5-.017c1.237-.238 3.262-.238 4.5 0 1.237.239.225.434-2.25.434s-3.488-.195-2.25-.434zm44 .044c.687-.278 1.812-.278 2.5 0 .687.277.125.504-1.25.504s-1.938-.227-1.25-.504zm35.5-.028c.962-.251 2.537-.251 3.5 0 .962.252.175.458-1.75.458s-2.713-.206-1.75-.458zm-154.68-12.882c-2.192-2.191-1.975-3.103.257-1.083 2.546 2.304 5.771 2.064 7.615-.568.856-1.222 1.556-1.742 1.556-1.155 0 1.728-3.485 4.378-5.757 4.378-1.155 0-2.807-.707-3.671-1.572zm7.632-7.474c-1.502-2.404-4.917-2.524-7.418-.26-1.71 1.547-1.817 1.55-1.237.038 1.292-3.366 8.582-3.438 9.864-.098.922 2.402.209 2.59-1.21.32zm-62.997-2.134c-.939-.374 4.106-.711 11.21-.75 7.104-.038 12.654.192 12.334.513-.839.839-21.51 1.047-23.543.237zm75.293-2.82c-1.667-.716-1.448-.871 1.309-.93 1.966-.041 3.058.336 2.69.93-.72 1.166-1.286 1.166-4 0zm-60.772-20.722c1.775-.22 4.925-.224 7-.008 2.075.217.622.397-3.228.402-3.85.004-5.547-.173-3.772-.394zm146.52-.392c1.056-.595 2.384-.63 3.349-.09 1.203.673.77.916-1.75.985-2.693.072-3.006-.103-1.6-.895zm51.75.114c0-.55.423-1 .94-1 .518 0 1.22.45 1.56 1 .34.55-.084 1-.941 1-.858 0-1.56-.45-1.56-1zm-125-1c.825-.533 1.95-.97 2.5-.97s.325.437-.5.97c-.825.533-1.95.97-2.5.97s-.325-.437.5-.97zm20.5 0c-1.63-.7-1.688-.873-.31-.93.93-.039 1.97.38 2.31.93.71 1.15.676 1.15-2 0zm9.5 0c.825-.533 1.95-.97 2.5-.97s.325.437-.5.97c-.825.533-1.95.97-2.5.97s-.325-.437.5-.97zm20 0c-.901-.583-1.025-.976-.31-.985.656-.008 1.47.435 1.81.985.767 1.241.421 1.241-1.5 0zm99 0c.825-.533 1.95-.97 2.5-.97s.325.437-.5.97c-.825.533-1.95.97-2.5.97s-.325-.437.5-.97zm20.5 0c-1.63-.7-1.688-.873-.31-.93.93-.039 1.97.38 2.31.93.71 1.15.676 1.15-2 0zm-257.5-1.06c0-.582.45-.78 1-.44s1 .816 1 1.059c0 .242-.45.44-1 .44s-1-.476-1-1.058zm17.269.367c.973-.254 2.323-.237 3 .037.677.274-.12.481-1.77.46-1.65-.02-2.203-.244-1.23-.497zm14.23-.733c1.1-.863 3.086-2.582 4.413-3.821 2.152-2.01 2.296-2.038 1.338-.253-.59 1.1-2.575 2.82-4.412 3.82-2.228 1.216-2.673 1.3-1.338.254zm23.362-.634l-2.36-2.059 2.75 1.674c1.512.921 2.75 1.848 2.75 2.06 0 .78-.836.335-3.14-1.675zm24.223 1.733c1.7-1.33 7.917-4.736 7.917-4.336 0 .647-6.489 4.663-7.535 4.663-.44 0-.611-.147-.382-.327zm70.777-1.733l-2.36-2.059 3 1.757c3.947 2.312 4.006 2.362 2.776 2.362-.58 0-2.118-.927-3.416-2.06zm22.139 1.667c0-.216.698-.661 1.552-.989.89-.341 1.291-.174.94.393-.587.95-2.492 1.406-2.492.596zm28.86-1.667l-2.36-2.059 3 1.757c3.948 2.312 4.007 2.362 2.777 2.362-.58 0-2.118-.927-3.416-2.06zm24.64.183c3.192-1.99 7.45-6.328 9.442-9.623 1.029-1.702 1.122-1.724.626-.15-1.22 3.876-9.325 11.657-12.13 11.646-.516-.002.412-.845 2.062-1.873zm-70.095-1.373l-1.905-2.25 2.25 1.905c1.237 1.047 2.25 2.06 2.25 2.25 0 .8-.805.21-2.595-1.905zm51 0l-1.905-2.25 2.25 1.905c1.237 1.047 2.25 2.06 2.25 2.25 0 .8-.805.21-2.595-1.905zm-197.85-.282c-1.068-.808-1.46-1.468-.873-1.468.588 0 1.63.675 2.314 1.5 1.557 1.876 1.067 1.865-1.441-.032zm20.014-1.563c1.61-1.977 3.13-3.425 3.376-3.218.247.207-1.07 1.825-2.927 3.595l-3.377 3.218zm35.787 1.172c-1.728-1.053-3.492-2.514-3.922-3.246-.43-.732.097-.564 1.17.374 1.074.939 3.514 2.383 5.422 3.211 1.91.828 2.796 1.521 1.97 1.54-.824.02-2.913-.826-4.64-1.879zm10.39 1.26c.688-.277 1.813-.277 2.5 0 .688.278.126.505-1.25.505-1.374 0-1.937-.227-1.25-.505zm19.25-32.539c-.275-18.536-.156-33.357.265-32.936.42.421.644 15.586.499 33.701l-.265 32.936zm39.408 17.201c0-9.075.151-12.788.337-8.25.185 4.538.185 11.962 0 16.5-.186 4.538-.337.825-.337-8.25zm35.593 15.622c0-.207.787-.995 1.75-1.75 1.586-1.243 1.621-1.208.377.378-1.306 1.666-2.127 2.196-2.127 1.372zm74.448-32.122c0-18.15.135-25.716.3-16.814.166 8.903.166 23.753 0 33-.164 9.247-.3 1.964-.3-16.186zm-164.45 31.107c0-.216.698-.66 1.552-.988.89-.342 1.291-.174.94.393-.587.95-2.492 1.405-2.492.595zm45.397-13.607c0-7.975.155-11.238.345-7.25.19 3.988.19 10.512 0 14.5-.19 3.988-.345.725-.345-7.25zm71.118 10.281l-1.756-2.78 2.315 2.221c1.273 1.223 2.063 2.474 1.756 2.782-.308.307-1.35-.693-2.315-2.223zm-14.43-.899c1.329-1.715 2.616-2.939 2.862-2.72.246.22-.84 1.623-2.414 3.119l-2.861 2.72zm-28.626.552c-.363-.587-.445-1.281-.183-1.543s.743.217 1.07 1.066c.675 1.762.099 2.072-.887.477zm20.105-.227c.375-.986.935-1.541 1.242-1.233.308.308.001 1.115-.682 1.793-.988.98-1.103.865-.56-.56zm-29.584-1.23c-.696-.84-1.071-1.719-.835-1.955.237-.237.98.449 1.651 1.524 1.452 2.325.968 2.58-.816.43zm59.136-2.575c-.614-1.76-1.086-3.92-1.049-4.8.037-.881.692.405 1.457 2.859 1.6 5.134 1.263 6.736-.408 1.941zm22.616 1.018c.353-1.352.807-1.805 1.056-1.056.24.721-.038 1.787-.619 2.368-.742.742-.872.351-.437-1.312zm-185.7.58c0-.55.436-1.675.97-2.5.532-.825.969-1.05.969-.5s-.437 1.675-.97 2.5c-.533.825-.97 1.05-.97.5zm-34.952-2.083c.048-1.165.285-1.402.604-.604.289.722.253 1.584-.079 1.917-.332.332-.569-.259-.525-1.313zm188.08-.96c-.64-1.403-1.145-3.092-1.123-3.754.021-.661.703.328 1.515 2.199 1.709 3.937 1.347 5.373-.392 1.555zm-192.93-2.457c0-1.925.206-2.712.457-1.75.252.963.252 2.538 0 3.5-.251.963-.457.175-.457-1.75zm47.847 1.417c.048-1.165.285-1.402.604-.604.289.722.253 1.584-.079 1.917-.332.332-.569-.259-.525-1.313zm137.53-.917c.822-3.677 1.395-4.475 1.374-1.916-.008 1.054-.472 2.591-1.03 3.416-.741 1.096-.834.691-.344-1.5zm-127.53-.083c.048-1.165.285-1.402.604-.604.289.722.253 1.584-.079 1.917-.332.332-.569-.259-.525-1.313zm93.116-1.917c.02-1.65.244-2.204.498-1.23.253.972.237 2.322-.037 3-.274.676-.482-.12-.461-1.77zm-108.96-1.5c0-1.925.206-2.712.457-1.75.252.963.252 2.538 0 3.5-.251.963-.457.175-.457-1.75zm134.1-4c0-4.125.176-5.812.392-3.75.216 2.063.216 5.438 0 7.5-.216 2.063-.392.375-.392-3.75zm-129.04 1c0-3.025.187-4.262.416-2.75.23 1.513.23 3.988 0 5.5-.229 1.513-.416.275-.416-2.75zm10-1c0-3.025.187-4.262.416-2.75.23 1.513.23 3.988 0 5.5-.229 1.513-.416.275-.416-2.75zm-29.671-1.35c-2.68-2.667-4.03-4.392-3-3.832 2.19 1.192 8.935 8.03 8.303 8.417-.238.146-2.624-1.917-5.303-4.585zm163.45 3.767c.048-1.165.285-1.402.604-.604.289.722.253 1.584-.079 1.917-.332.332-.569-.259-.525-1.313zm-51-2c.048-1.165.285-1.402.604-.604.289.722.253 1.584-.079 1.917-.332.332-.569-.259-.525-1.313zm47 0c.048-1.165.285-1.402.604-.604.289.722.253 1.584-.079 1.917-.332.332-.569-.259-.525-1.313zm-146.83-3.667c-1.075-2.938-1.048-3.063.28-1.309 1.272 1.68 2.023 4.56 1.19 4.56-.155 0-.816-1.463-1.47-3.25zm150.83 1.667c.048-1.165.285-1.402.604-.604.289.722.253 1.584-.079 1.917-.332.332-.569-.259-.525-1.313zm-39.884-2.917c.02-1.65.244-2.204.498-1.23.253.972.237 2.322-.037 3-.274.676-.482-.12-.461-1.77zm34.963-.5c0-1.375.227-1.937.504-1.25.278.688.278 1.813 0 2.5-.277.688-.504.125-.504-1.25zm16.037-.5c.02-1.65.244-2.204.498-1.23.253.972.237 2.322-.037 3-.274.676-.482-.12-.461-1.77zm-61.116-.083c.048-1.165.285-1.402.604-.604.289.722.253 1.584-.079 1.917-.332.332-.569-.259-.525-1.313zm-93-1c.048-1.165.285-1.402.604-.604.289.722.253 1.584-.079 1.917-.332.332-.569-.259-.525-1.313zm-30.638-1.972c-1.864-1.493-1.852-1.512.309-.465 1.237.6 2.25 1.3 2.25 1.556 0 .765-.519.544-2.56-1.09zm40.638-.028c.048-1.165.285-1.402.604-.604.289.722.253 1.584-.079 1.917-.332.332-.569-.259-.525-1.313zm134.92-.059c0-.536.7-1.849 1.555-2.917 1.466-1.83 1.487-1.798.365.56-1.458 3.06-1.92 3.628-1.92 2.357zm-159.13-2.108c-1.244-1.586-1.209-1.621.377-.377.963.755 1.75 1.542 1.75 1.75 0 .823-.82.293-2.127-1.373zm201.13-.25c-.589-1.1-.846-2-.57-2 .274 0 .981.9 1.57 2 .589 1.1.845 2 .57 2s-.981-.9-1.57-2zm-9.856-1.75c-1.091-2.55-1.066-2.609.34-.809.834 1.068 1.516 2.306 1.516 2.75 0 1.52-.678.81-1.856-1.94zm-101.41-.17c-.435-1.663-.305-2.053.437-1.311.581.58.86 1.647.62 2.368-.25.749-.703.296-1.057-1.057zm20.124.42c1.042-2.167 4.74-5.758 7.145-6.938.825-.404.469.107-.792 1.137-1.26 1.03-3.421 3.206-4.803 4.837-1.411 1.666-2.09 2.089-1.55.964zm36.145-3.235c-3.094-3.186-3.633-4.066-1.724-2.817 2.266 1.483 7.672 7.682 6.542 7.502-.175-.028-2.343-2.136-4.818-4.685zm-150.56 2.18c-1.864-1.493-1.852-1.512.309-.465 1.238.6 2.25 1.3 2.25 1.556 0 .765-.519.544-2.559-1.09zm20.56 1.178c0-.208.787-.995 1.75-1.75 1.585-1.244 1.62-1.209.377.377-1.307 1.666-2.128 2.196-2.128 1.373zm34.842-4.123c-.197-2.475-.017-4.5.4-4.5.416 0 .757 2.025.757 4.5s-.18 4.5-.4 4.5c-.22 0-.56-2.025-.757-4.5zm-77.983 1.44l-2.36-2.058 2.75 1.674c1.512.92 2.75 1.848 2.75 2.06 0 .78-.836.335-3.14-1.675zm146.89.547c1.197-2.222 6.105-7.06 6.5-6.407.14.231-1.507 2.214-3.658 4.407-2.151 2.192-3.43 3.092-2.842 2zm17.82-2.237c-2.161-2.762-2.334-3.226-.657-1.761 2.005 1.751 4.65 5.511 3.876 5.511-.157 0-1.605-1.687-3.219-3.75zm-110.57.75c.589-1.1 1.296-2 1.57-2 .276 0 .019.9-.57 2s-1.295 2-1.57 2c-.275 0-.019-.9.57-2zm46.917.155c1.444-2.697 2.969-3.58 2.67-1.547-.13.89-1.03 2.061-2 2.604-1.547.865-1.63.736-.67-1.057zm89.588-.007c1.938-2.29 6.588-5.188 8.196-5.108.44.022-.55.752-2.2 1.622-1.65.87-4.122 2.54-5.493 3.71l-2.493 2.128zm33.42-.898l-2.424-2.75 2.75 2.425c1.512 1.333 2.75 2.57 2.75 2.75 0 .784-.81.146-3.076-2.425zm-23.206-1.271c1.77-1.857 3.388-3.174 3.595-2.927.207.246-1.241 1.766-3.218 3.376l-3.595 2.927zm-185.28.466c-1.864-1.493-1.852-1.512.309-.465 1.238.6 2.25 1.3 2.25 1.555 0 .766-.519.545-2.559-1.09zm198.25-.976c-1.543-1.358-2.409-2.469-1.924-2.469.485 0 1.938 1.125 3.23 2.5 2.989 3.181 2.328 3.165-1.306-.031zm-165.69 1.154c0-.208.788-.996 1.75-1.75 1.586-1.244 1.622-1.209.378.377-1.307 1.666-2.128 2.196-2.128 1.373zm21.5-1.69c-1.65-1.058-2.487-1.925-1.86-1.928.626-.002 2.201.88 3.5 1.962 2.972 2.477 2.257 2.462-1.64-.035zm-73.52-.457c-.696-.838-1.071-1.718-.834-1.954.236-.237.98.449 1.65 1.524 1.452 2.324.968 2.58-.816.43zm13.881-1.535l-2.36-2.06 2.75 1.675c1.512.92 2.75 1.847 2.75 2.06 0 .78-.836.334-3.14-1.675zm112.7.527c-1.067-.807-1.46-1.468-.872-1.468.587 0 1.629.675 2.313 1.5 1.558 1.876 1.068 1.866-1.44-.032zm95.441.532c-.825-.533-1.05-.97-.5-.97s1.675.437 2.5.97c.825.533 1.05.97.5.97s-1.675-.437-2.5-.97zm-163.52-1.379c2.817-1.332 16.484-2.252 15.26-1.027-.317.316-3.65.71-7.408.876-3.758.165-7.732.584-8.832.93-1.1.347-.66-.004.98-.779zm92.52.38c.825-.534 2.175-.945 3-.915.99.036.819.347-.5.914-2.749 1.181-4.328 1.181-2.5 0zm-74.188-.684c.722-.289 1.585-.253 1.917.079.332.332-.258.569-1.313.525-1.165-.048-1.402-.285-.604-.604zm80.688-.288c-1.396-.58-.34-.823 3.5-.807 3.795.015 4.88.273 3.5.83-2.546 1.028-4.484 1.022-7-.023zm51-.018c-1.604-.68-1.356-.815 1.248-.68 1.787.093 3.25.507 3.25.92.003.953-1.928.85-4.498-.24zm-90.75-.717c1.238-.238 3.263-.238 4.5 0 1.238.239.225.434-2.25.434s-3.487-.195-2.25-.434zm97.062.023c.722-.289 1.585-.253 1.917.079.332.332-.258.569-1.313.525-1.165-.048-1.402-.285-.604-.604zm-205.94-2.067c-1.244-1.586-1.208-1.621.378-.377.962.754 1.75 1.542 1.75 1.75 0 .823-.821.293-2.128-1.373zm-2.902-4.305c-.605-1.13-.952-2.5-.77-3.044.18-.543.845.382 1.477 2.056 1.314 3.48.921 4.03-.707.988zm-.891-6.528c.048-1.165.285-1.402.604-.604.289.722.253 1.584-.08 1.916-.331.333-.568-.258-.524-1.312zm-5.294-1.917c.567-1.1 2.31-3.123 3.873-4.496l2.842-2.497-2.993 3.497c-4.74 5.54-4.806 5.601-3.722 3.496zm22.714-5.555c-2.2-1.04-3.415-1.904-2.7-1.919 1.456-.029 7.2 2.763 7.2 3.5 0 .585.296.689-4.5-1.58zm-10.767-1.069c.679-.683 1.486-.99 1.794-.683.307.308-.248.867-1.234 1.243-1.425.543-1.54.428-.56-.56zm-4.07-.842c.64-.693 3.34-1.416 6-1.608l4.837-.348-4.7.871c-2.584.479-5.284 1.202-6 1.608-1 .567-1.032.447-.137-.523zm25.15.283c.721-.289 1.584-.253 1.916.079.332.332-.258.569-1.313.525-1.165-.048-1.402-.285-.604-.604zm-5.063-.98c.687-.277 1.812-.277 2.5 0 .687.278.125.505-1.25.505s-1.938-.227-1.25-.504zm-7.5-1.026c.962-.252 2.537-.252 3.5 0 .962.251.175.457-1.75.457s-2.713-.206-1.75-.457zm65.75-1.31c-1.071-.693-.07-.946 3.5-.886 3.989.067 4.494.246 2.5.885-3.47 1.111-4.281 1.111-6 0zm148.63.199c-.236-.385 2.333-.845 5.71-1.021 3.377-.177 5.92-.128 5.651.11-.916.81-10.93 1.613-11.362.91zm-133.81-1.883c.722-.289 1.584-.253 1.916.079.333.332-.258.569-1.312.525-1.165-.048-1.402-.285-.604-.604zm149 0c.722-.289 1.584-.253 1.916.079.333.332-.258.569-1.312.525-1.165-.048-1.402-.285-.604-.604z" fill="#71757c"/><path d="M429.564 441.184l-3.751-7.58 2.782-2.067c6.643-4.934 23.306-22.969 28.43-30.772 11.552-17.59 16.276-30.082 19.565-51.735 1.657-10.91 1.786-22.95 1.786-165.73V29.33l-19-4.26c-10.45-2.344-20.012-4.504-21.25-4.801-2.022-.486-2.25-1.146-2.25-6.521V7.767h134v6c0 4.231-.38 6-1.29 6-1.906 0-28.087 7.977-28.923 8.813-.394.394-.873 65.51-1.065 144.7-.346 142.5-.372 144.1-2.499 154.99-4.366 22.353-10.352 38.588-20.46 55.5-13.197 22.078-29.726 38.095-52.263 50.643-5.975 3.327-28.833 14.357-29.753 14.357-.17 0-1.996-3.411-4.06-7.58zm-353.69-50.027c-27.158-2.969-41.611-5.741-59.086-11.333l-12.586-4.027-1.292-34.265c-.71-18.846-1.571-40.023-1.913-47.06-.595-12.24-.536-12.813 1.378-13.238 4.025-.894 20.93-3.371 21.195-3.106.15.15 1.455 6.768 2.9 14.706 6.133 33.689 10.671 46.217 20.104 55.5 11.841 11.654 26.875 19.446 41.631 21.58 11.832 1.71 23.984-.24 35.298-5.666 15.29-7.333 28.205-23.811 32.902-41.981 2.589-10.013 3.026-24.89 1-34.07-4.898-22.2-18.926-38.367-51.75-59.644-56.778-36.802-60.808-39.658-72.28-51.21-11.536-11.614-15.382-17.165-21.168-30.548-12-27.757-10.568-71.716 3.233-99.208 8.62-17.173 21.916-31.027 36.762-38.31 5.045-2.474 11.872-5.203 15.172-6.064 13.986-3.649 45.658-2.726 74.5 2.17 16.094 2.733 18.638 3.31 31.25 7.082l8.75 2.617v91.685h-23.557l-2.365-18.75c-2.989-23.7-4.335-30.09-7.938-37.662-8.6-18.076-34.587-30.764-60.24-29.41-18.693.985-31.75 12.842-37.5 34.054-2 7.379-2.874 26.017-1.548 33.045 2.537 13.453 9.344 25.727 20.648 37.233 10.206 10.388 20.402 17.903 57.2 42.158 35.086 23.125 43.015 29.003 53.513 39.672 25.572 25.988 34.505 58.877 26.662 98.161-6.831 34.216-28.571 62.564-59.002 76.937-16.303 7.7-22.138 8.834-46.874 9.103-11.825.13-23.075.063-25-.148zm145.2-12.01l.3-5.62 30-10.368V28.27l-30.47-9-.03-11.5h132v5.892c0 5.287-.23 5.946-2.25 6.419-1.237.29-10.688 2.44-21 4.776l-18.75 4.25v333.66h30.04c27.842 0 30.32-.143 33.874-1.956 4.515-2.303 8.302-6.556 11.522-12.936 2.442-4.84 12.907-36.15 19.124-57.217 2.011-6.815 3.77-12.514 3.908-12.666.314-.346 24.62 3.53 25.092 4 .19.19-2.551 22.606-6.09 49.81-3.54 27.207-6.444 50.253-6.453 51.216-.015 1.655-5.477 1.75-100.57 1.75h-100.55z" fill="#2258a7"/><path d="M433.224 447.434c-.369-.644-.34-.874.065-.512s3.898-.904 7.763-2.814c3.865-1.91 7.19-3.31 7.391-3.109.2.2-2.991 1.994-7.092 3.985-5.23 2.54-7.657 3.271-8.127 2.45zm-2.205-4.42c-1.092-2.55-1.067-2.61.339-.81.834 1.068 1.516 2.306 1.516 2.75 0 1.52-.678.811-1.855-1.94zm18.939-2.622c.229-.205 4.016-2.297 8.416-4.65 4.4-2.352 9.125-4.932 10.5-5.733 2.392-1.393 2.413-1.384.5.214-3.58 2.99-22.439 12.866-19.417 10.168zm-22.791-4.532c-1.057-1.69-.37-2.59 6.155-8.053 7.935-6.644 14.479-13.802 21.98-24.044 5.38-7.346 6.824-8.913 4.146-4.5-6.163 10.156-17.197 22.47-27.925 31.168-3.016 2.445-3.706 3.579-3.183 5.227.83 2.616.382 2.693-1.174.202zm44.708-7.446c0-.231 1.18-1.194 2.623-2.14 1.442-.944 2.317-1.224 1.944-.62-.714 1.155-4.567 3.483-4.567 2.76zm10-7.33c9.426-8.002 17.315-16.008 22.697-23.035 6.339-8.277 7.997-9.616 3.14-2.536-4.528 6.6-19.744 22.161-25.532 26.11l-4.806 3.28zm-20.101-26.82c1.685-3.262 3.07-5.07 3.063-4-.004.55-.928 2.125-2.052 3.5-1.358 1.66-1.698 1.828-1.011.5zm-377.17-3.13c-.297-.48 6.481-.87 15.116-.87 8.61 0 18.13-.314 21.155-.698 4.474-.568 4.94-.504 2.5.346-3.783 1.317-38.045 2.397-38.771 1.222zm-16.73-1.417c-2.691-.447-.682-.537 5-.223 5.226.287 9.688.691 9.917.896.687.615-10.079.13-14.917-.673zm445.5-3.953c1.47-2.475 5.083-9.45 8.028-15.5 2.946-6.05 5.381-10.572 5.412-10.05.093 1.565-11.755 24.848-14.018 27.55-1.48 1.767-1.31 1.18.578-2zm-457.24 2.282c1.52-.23 3.77-.224 5 .014 1.23.237-.013.425-2.763.417-2.75-.008-3.757-.201-2.236-.431zm71.487.055c.687-.277 1.812-.277 2.5 0 .687.278.125.505-1.25.505s-1.938-.227-1.25-.505zm-84.25-1.815c-6.705-1.723-3.56-1.787 4-.081 3.3.744 4.875 1.357 3.5 1.36-1.375.004-4.75-.572-7.5-1.279zm92.5-.522c2.475-1.039 5.175-1.889 6-1.889.825 0-.525.85-3 1.889-2.475 1.038-5.175 1.888-6 1.888-.825 0 .525-.85 3-1.888zm331.7-2.488c.914-1.918 1.84-3.31 2.057-3.093.458.458-2.578 6.58-3.262 6.58-.252 0 .29-1.569 1.205-3.487zm-433.43.795c.972-.254 2.323-.237 3 .037.677.274-.12.481-1.77.46-1.65-.02-2.203-.244-1.23-.497zm186.73-4.565v-5.258l4.713-1.695c6.095-2.192 6.834-1.546.847.74-4.452 1.701-4.56 1.846-4.56 6.111v4.37l198.5-.51.618-3.5c.515-2.918.64-3.057.75-.832.312 6.32 8.774 5.832-100.98 5.832h-99.893zm-194.5 2.72c-3.961-1.37-3.966-1.378-.5-.808 1.925.316 4.175.96 5 1.43 2.201 1.255.074.96-4.5-.622zm117.5.967c0-.275 2.076-1.39 4.615-2.479 15.735-6.745 33.39-23.3 44.203-41.45 2.293-3.85 4.173-6.56 4.176-6.02.008 1.415-6.652 12.102-11.545 18.529-8.736 11.47-25.434 25.055-36.774 29.916-2.572 1.102-4.675 1.778-4.675 1.503zM19.68 380.08c.721-.29 1.584-.254 1.916.078.333.333-.258.57-1.312.526-1.165-.048-1.402-.285-.604-.605zm-8.313-2.402c-2.75-1.062-3.7-1.678-2.11-1.369 3.144.611 9.734 3.288 8.11 3.295-.55.002-3.25-.865-6-1.926zm458.54.95c-.02-.35.622-2.15 1.425-4 .804-1.851 1.463-2.69 1.465-1.865.004 1.44-2.817 7.166-2.89 5.864zm-464.88-4.865c0-1.375.227-1.938.504-1.25.278.687.278 1.812 0 2.5-.277.687-.504.125-.504-1.25zm417.11-2c0-2.475.195-3.488.433-2.25.239 1.237.239 3.262 0 4.5-.238 1.237-.433.225-.433-2.25zm-330.02-.729c2.063-.216 5.438-.216 7.5 0 2.063.216.375.392-3.75.392s-5.812-.176-3.75-.392zm-17.25-2.91c-3.575-1.375-6.95-2.984-7.5-3.577-.69-.743-.599-.85.294-.345.711.403 4.986 2.035 9.5 3.627 4.513 1.592 7.306 2.872 6.206 2.844-1.1-.027-4.925-1.174-8.5-2.549zm32.75 1.976c.688-.277 1.813-.277 2.5 0 .688.278.125.505-1.25.505s-1.937-.227-1.25-.505zm127.25-.837c4.566-1.759 6.362-1.733 2.5.036-1.65.755-3.675 1.36-4.5 1.342-.825-.017.075-.637 2-1.378zm238.08-.084c.048-1.165.285-1.402.604-.604.29.722.254 1.585-.079 1.917-.332.332-.568-.258-.525-1.313zm-355.46-1.783c15.717-6.276 27.363-17.117 34.519-32.133 1.573-3.3 2.86-5.423 2.86-4.717.001 1.75-4.716 10.933-7.816 15.217-7.439 10.276-23.142 21.554-32.683 23.473-1.65.332-.247-.496 3.12-1.84zm129.38-2.133c4.566-1.758 6.362-1.733 2.5.036-1.65.755-3.675 1.36-4.5 1.343-.825-.017.075-.638 2-1.38zm227.67-2c.97-6.067 2.412-9.93 1.68-4.5-.334 2.475-.992 5.4-1.463 6.5-.552 1.289-.63.578-.217-2zm-51.44-.5c0-1.925.206-2.713.457-1.75.252.962.252 2.537 0 3.5-.251.962-.457.175-.457-1.75zm-364.24-3.081c-3.473-2.245-8.956-6.602-12.185-9.681-5.58-5.323-11.81-14.452-11.81-17.306 0-.729 1.206 1.126 2.679 4.121 3.267 6.641 13.703 17.208 22.136 22.413 5.504 3.397 6.968 4.534 5.84 4.534-.19 0-3.186-1.837-6.659-4.081zm267.32 3.332c8.697-.166 22.647-.166 31 .001 8.353.167 1.238.304-15.812.303-17.05 0-23.884-.137-15.188-.304zM3.388 342.74c-.404-11.055-.515-20.319-.247-20.587.268-.268.819 8.557 1.223 19.61.405 11.054.516 20.318.247 20.587-.269.27-.82-8.555-1.223-19.61zm248.96-146.98c0-92.125.118-129.81.262-83.75.143 46.062.143 121.44 0 167.5-.144 46.062-.262 8.375-.262-83.75zm57 .5c0-91.85.118-129.28.262-83.17.143 46.105.143 121.26 0 167-.144 45.743-.262 8.02-.262-83.83zm66.012 164.66c6.482-3.952 10.96-10.735 15.624-23.663.992-2.75 1.82-4.274 1.84-3.387.058 2.61-5.57 15.454-8.88 20.266-2.773 4.03-8.482 8.627-10.702 8.618-.485-.002.468-.827 2.118-1.833zm48.673-4.163c-.032-1.375.315-4.3.77-6.5.53-2.566.848-3.103.885-1.5.031 1.375-.315 4.3-.77 6.5-.531 2.566-.848 3.104-.885 1.5zm103.87-1.635c-.021-.624.618-2.65 1.422-4.5.803-1.85 1.478-2.854 1.5-2.23.021.625-.619 2.65-1.422 4.5-.803 1.851-1.478 2.855-1.5 2.23zm-50.767-6.365c0-2.475.195-3.487.433-2.25.239 1.238.239 3.263 0 4.5-.238 1.238-.433.225-.433-2.25zm53.841-3c-.037-.825.782-4.65 1.82-8.5 1.037-3.85 1.917-6.325 1.954-5.5.037.825-.782 4.65-1.82 8.5-1.037 3.85-1.917 6.325-1.954 5.5zm-104.86-4.5c.011-2.2.216-2.982.455-1.738.24 1.244.23 3.044-.02 4s-.446-.062-.435-2.262zm52.401-3c.278-2.75.833-73.4 1.233-157l.728-152-.198 152c-.13 100.17-.55 153.7-1.233 157l-1.036 5zm-51.527-4.72c-.07-.945.537-6.345 1.346-12 .81-5.654 1.657-11.63 1.883-13.28.225-1.65.209.376-.037 4.5-.453 7.607-2.961 23.937-3.192 20.78zm-230.13-2.422c0-.536.7-1.849 1.555-2.917 1.467-1.83 1.487-1.798.365.56-1.458 3.06-1.92 3.628-1.92 2.357zm196.63-1.293c.938-3.661 3.298-8.779 3.258-7.065-.02.825-.9 3.3-1.958 5.5-1.058 2.2-1.643 2.904-1.3 1.565zm-361.02-3.689c-.887-2.602-1.588-5.44-1.559-6.304.03-.864.91 1.11 1.957 4.388 2.264 7.09 1.923 8.729-.398 1.916zm502.64.124c.011-2.2.216-2.982.455-1.738.24 1.244.23 3.044-.02 4s-.446-.062-.435-2.262zm-380.17 2.316c-.045-.377.406-1.952 1.002-3.5.595-1.549 1.483-4.616 1.972-6.816l.89-4-.355 4c-.308 3.461-3.283 12.21-3.509 10.315zm44.972-3.316c-.024-.55 1.069-4.15 2.43-8 1.361-3.85 2.484-6.267 2.496-5.371.023 1.772-4.853 15.009-4.926 13.372zm336.61-7.5c.3-2.475.835-68.813 1.189-147.42.566-125.82.822-142.97 2.143-143.33 1.066-.29 1.15-.16.292.45-.931.663-1.302 33.512-1.616 143.33-.276 96.65-.752 143.91-1.48 146.97l-1.074 4.5zm-534.03.79c-.337-1.26-.545-5.89-.462-10.29l.151-8 .65 10c.692 10.631.639 11.94-.339 8.29zm394.51 1.21c0-.825.83-3.75 1.845-6.5 1.015-2.75 1.845-4.325 1.845-3.5 0 .825-.83 3.75-1.845 6.5-1.015 2.75-1.845 4.325-1.845 3.5zm-368.52-9.42c-.897-3.57-1.598-7.298-1.558-8.285.04-.987.946 1.762 2.014 6.108 1.067 4.347 1.768 8.076 1.558 8.286-.211.211-1.117-2.538-2.014-6.108zm130.74-8.58c0-5.775.165-8.137.367-5.25.202 2.888.202 7.613 0 10.5-.202 2.888-.367.525-.367-5.25zm45.792 7c-.041-.825.534-4.2 1.279-7.5.744-3.3 1.357-4.875 1.36-3.5.007 2.806-2.521 13.346-2.639 11zm195.92-2c.007-1.848 2.722-7.942 2.835-6.364.044.624-.577 2.649-1.38 4.5-.804 1.85-1.458 2.69-1.455 1.864zm30.103-5.5c-.035-1.65.532-6.15 1.262-10 .73-3.85 1.349-5.875 1.376-4.5.027 1.375-.54 5.875-1.262 10-.721 4.125-1.34 6.15-1.376 4.5zm-429.58-3.081c-.334-.87-.607-4.92-.607-9 0-7.061.108-7.413 2.25-7.303 1.841.095 1.914.203.401.593-1.65.425-1.811 1.378-1.5 8.884.192 4.624.285 8.408.206 8.407-.079 0-.416-.712-.75-1.581zm402.47-1.002c.048-1.165.285-1.402.604-.604.29.722.254 1.584-.079 1.917-.332.332-.568-.259-.525-1.313zm-379.79-9.395c-1.1-5.512-1.722-10.021-1.385-10.021.703 0 4.36 19.066 3.77 19.655-.212.213-1.286-4.123-2.385-9.634zm184.11-8.522c.001-8.8.154-12.266.34-7.702.186 4.563.185 11.764-.002 16-.187 4.236-.339.502-.338-8.298zm196.75 14.5c0-.825.83-3.75 1.845-6.5 1.015-2.75 1.845-4.325 1.845-3.5 0 .825-.83 3.75-1.845 6.5-1.015 2.75-1.845 4.325-1.845 3.5zm-246.96-5.5c.02-1.65.245-2.204.498-1.23.254.972.237 2.322-.037 3-.274.676-.481-.12-.461-1.77zm-1.406-5.025a102.622 102.622 0 00-1.24-3.975c-.371-1.1.056-.735.95.81.896 1.546 1.453 3.334 1.24 3.975-.214.64-.641.275-.95-.81zm274.71-.475l-3-.763 3.25-.118c1.787-.065 3.25.331 3.25.881s-.113.947-.25.882c-.138-.065-1.6-.462-3.25-.882zm-422.52-1.96c5.102-1.293 13.288-2.214 9.823-1.105-1.482.474-5.082 1.116-8 1.425-4.293.456-4.641.395-1.823-.32zm407.52-.552c-4.523-.987-6.178-1.023-6.735-.148-.554.87-.742.863-.753-.03-.027-2.088 1.29-2.127 10.485-.312 4.95.977 7.65 1.782 6 1.787-1.65.006-5.699-.578-8.997-1.297zm-265.36-10.21c-3.594-7.045-11.35-15.788-24.642-27.78-2.104-1.898-1.656-1.715 1.5.612 6.885 5.075 16.4 15.22 21.569 22.994 2.56 3.852 4.412 7.248 4.113 7.546-.298.299-1.442-1.219-2.54-3.373zm55-12.92c-.628-3.13-.956-5.877-.73-6.103.228-.227.942 2.133 1.588 5.246.646 3.112.975 5.858.73 6.103-.244.244-.959-2.117-1.587-5.246zm-2.063-8.94c.048-1.166.285-1.403.604-.605.289.722.253 1.584-.079 1.917-.332.332-.568-.259-.525-1.313zm-2.69-7.107c-7.166-18.907-22.344-36.333-46.923-53.873-7.458-5.322-8.79-7.112-1.716-2.307 20.2 13.722 34.583 28.147 43.662 43.792 3.733 6.432 7.867 16.133 7.17 16.829-.203.204-1.19-1.795-2.193-4.44zm-85.871-6.439c-6.728-4.756-10.84-8.207-7.518-6.307 3.251 1.859 13.994 9.616 14.54 10.499.83 1.343.677 1.252-7.023-4.192zm-13.267-8.987c-3.409-2.183-4.512-3.648-1.5-1.993 2.294 1.261 5.888 4.04 5.25 4.06-.275.008-1.963-.922-3.75-2.067zm-19.902-12.647c-14.428-9.272-21.611-14.2-18.348-12.59.825.408 6.45 3.951 12.5 7.875s13.137 8.38 15.75 9.9c3.977 2.317 6.772 4.612 5.559 4.565-.17-.007-7.128-4.394-15.461-9.75zm-29.42-19.376c-22.423-16.33-33.823-30.082-41.647-50.234-1.254-3.23-2.254-6.38-2.222-7 .032-.62 1.27 2.035 2.75 5.9 7.89 20.605 19.475 34.696 41.442 50.408 7.76 5.55 9.566 7.064 8.427 7.064-.177 0-4.115-2.762-8.75-6.138zm87.065-16.037c-21.587-13.884-49.754-33.14-57.492-39.306-8.837-7.04-19.202-17.137-22.283-21.705-.859-1.272 2.1 1.564 6.575 6.302 10.543 11.164 22.061 19.91 53.251 40.438 14.001 9.215 25.884 17.134 26.406 17.6 2.096 1.867-.296.635-6.458-3.329zM7.044 129.82c-.663-2.868-1.167-5.968-1.121-6.888.046-.92.73.999 1.52 4.266s1.294 6.367 1.12 6.889c-.173.522-.857-1.398-1.52-4.267zm-1.918-13.562c.007-2.75.201-3.756.431-2.236.23 1.52.224 3.77-.013 5-.238 1.23-.426-.014-.418-2.764zm51.955-3.75c-1.452-1.807-6.434-11.89-6.059-12.263.175-.172 1.983 2.797 4.019 6.6 3.569 6.666 4.157 8.3 2.04 5.663zm101.41-6.5c-.257-.412 4.667-.61 10.94-.44l11.408.311V16.05l-4.75-1.584c-2.613-.87-4.018-1.611-3.122-1.645.895-.034 3.257.62 5.25 1.451l3.622 1.514v90.973h-11.441c-6.293 0-11.651-.338-11.907-.75zm-.38-7.25c0-2.475.195-3.487.434-2.25.238 1.238.238 3.263 0 4.5-.239 1.238-.434.225-.434-2.25zm-109.11-3.86c-.638-2.13-1.129-4.495-1.09-5.256.038-.76.74.801 1.56 3.472.821 2.67 1.312 5.036 1.091 5.256-.22.22-.923-1.341-1.56-3.471zm106.89-9.69c-.7-4.708-1.07-8.762-.823-9.01.247-.247 1.023 3.402 1.723 8.11.7 4.708 1.071 8.763.824 9.01-.248.248-1.023-3.402-1.724-8.11zm-150.76 2.05c.008-2.75.202-3.756.432-2.236.23 1.52.224 3.77-.014 5-.237 1.23-.425-.014-.418-2.764zm41.986-3.5c0-2.475.195-3.487.434-2.25.238 1.238.238 3.263 0 4.5-.239 1.238-.434.225-.434-2.25zm-41.172-3.2c-.134-2.271 1.986-12.047 2.5-11.532.224.223-.225 3.291-.997 6.819-.771 3.527-1.447 5.648-1.503 4.712zm147.9-10.081c0-1.806-.638-5.742-1.418-8.75-1.6-6.168-1.404-7.76.341-2.77 1.373 3.928 2.637 14.802 1.72 14.802-.354 0-.643-1.477-.643-3.283zm-106.86-2.513c-.134-4.227 2.711-17.69 3.56-16.842.24.24-.108 2.393-.772 4.786s-1.532 7.051-1.93 10.351c-.647 5.384-.735 5.559-.858 1.706zM8.868 66.476c-.034-3.088 8.818-24.285 8.945-21.418.02.44-.71 2.24-1.621 4-.911 1.76-2.927 6.8-4.48 11.2-1.553 4.4-2.833 7.198-2.844 6.218zm139.8-15.764c-.921-2.174-1.495-3.953-1.275-3.953.733 0 3.577 6.122 3.262 7.021-.171.487-1.065-.893-1.987-3.068zM50.923 48.96c-.087-1.446 2.688-7.2 3.473-7.2.275 0-.125 1.237-.889 2.75-.763 1.512-1.64 3.425-1.946 4.25-.375 1.007-.585 1.073-.638.2zm91.488-7.815c-4.465-5.342-14.252-11.887-23.567-15.76-3.575-1.487-5.169-2.43-3.542-2.094 8.741 1.804 27.192 14.207 30.596 20.57 1.596 2.982.677 2.266-3.487-2.716zm-123.57.614c.589-1.1 1.296-2 1.57-2 .276 0 .02.9-.57 2-.588 1.1-1.295 2-1.57 2-.275 0-.018-.9.57-2zm2-3.434c0-1.348 12.383-15.7 16.565-19.198C42.5 14.865 52.802 8.386 53.451 9.035c.203.202-1.54 1.417-3.87 2.699-7.61 4.185-17.455 12.824-22.788 19.995-4.835 6.502-5.952 7.74-5.952 6.595zm35 .329c0-1.18 4.767-6.822 8-9.47 2.813-2.302 2.535-1.79-1.415 2.605a1678.35 1678.35 0 00-5.75 6.42c-.46.523-.835.723-.835.445zm255.5-10.894c.34-.55 1.604-.969 2.81-.93 2.112.068 2.119.101.19.93-2.752 1.183-3.73 1.183-3 0zm162.5 0c-2.01-.644-2.107-.807-.5-.83 1.1-.016 2.9.357 4 .83 2.549 1.095-.08 1.095-3.5 0zm-404.14-2.944c1.299-1.13 2.874-2.05 3.5-2.041 1.194.016-.468 1.34-3.86 3.075-1.572.804-1.495.582.36-1.034zm171.64-.141c-2.75-1.062-3.7-1.678-2.11-1.369 3.145.612 9.734 3.288 8.11 3.295-.55.002-3.25-.865-6-1.926zm77.25 1.422c.688-.277 1.813-.277 2.5 0 .688.278.125.505-1.25.505s-1.937-.227-1.25-.505zm141.25-1.337c-3.575-.994-5.825-1.84-5-1.88.825-.041 4.65.775 8.5 1.812 3.85 1.038 6.1 1.884 5 1.88-1.1-.003-4.925-.819-8.5-1.812zm86.5 0c2.75-1.015 5.675-1.845 6.5-1.845.825 0-.75.83-3.5 1.845-2.75 1.015-5.675 1.845-6.5 1.845-.825 0 .75-.83 3.5-1.845zm-220-.528c2.2-.725 4.9-1.313 6-1.306 1.1.007-.25.639-3 1.404-6.256 1.74-8.37 1.672-3-.098zm-248.5-2.972c1.925-.742 4.625-1.352 6-1.357 1.447-.005.394.577-2.5 1.38-6.304 1.75-8.076 1.74-3.5-.023zm30.812.817c.722-.29 1.585-.254 1.917.079.332.332-.258.568-1.312.525-1.165-.048-1.402-.285-.605-.604zm118.69-1.317c-2.75-1.015-4.325-1.845-3.5-1.845.825 0 3.75.83 6.5 1.845 2.75 1.015 4.325 1.845 3.5 1.845-.825 0-3.75-.83-6.5-1.845zm109.5 1.702c0-.293 3.355-1.323 7.456-2.29l7.455-1.757.711-11.155.19 6.05.188 6.05-5.75 1.208c-3.162.664-6.762 1.481-8 1.816-1.237.335-2.25.37-2.25.078zm105.5-1.47c-3.298-.862-5.534-1.722-4.968-1.91.565-.189 4.388.537 8.496 1.612 4.108 1.076 6.344 1.936 4.969 1.911-1.375-.024-5.199-.75-8.497-1.612zm117-.232c2.75-1.015 5.9-1.856 7-1.869 1.1-.013-.7.845-4 1.908-7.574 2.438-9.64 2.411-3-.04zm-464.5-.57l-8.5-1.3 7.744.52c4.258.285 8.983.892 10.5 1.348 3.948 1.188.387.98-9.744-.568zm126.12-6.18c-.063-2.888.244-5.25.684-5.25.44 0 .638 1.687.442 3.75-.612 6.43-1.005 6.955-1.126 1.5zm348.18-.25c0-3.025.188-4.263.417-2.75.229 1.512.229 3.987 0 5.5-.23 1.512-.417.275-.417-2.75zm-407.3-3.071c-3.575-.986-5.375-1.796-4-1.8 1.375-.004 4.975.82 8 1.83 6.999 2.336 4.513 2.317-4-.03zm-105-3.345c1.375-.734 3.625-1.615 5-1.957 1.375-.343.7.243-1.5 1.3-4.525 2.177-7.33 2.703-3.5.657zm85.5-.724c-6.124-1.42-6.828-1.731-3-1.33 5.995.626 17.056 3.262 13.5 3.216-1.375-.017-6.1-.866-10.5-1.886zM67.57 3.828c5.986-2.655 19.458-3.43 37.69-2.168 9.946.688 19.883 1.651 22.083 2.141l4 .891-4.5-.427c-30.579-2.904-44.995-2.897-59 .028-2.39.5-2.402.479-.273-.465z" fill="#0e52a4"/></svg>